<svg width="23" height="22" viewBox="0 0 23 22" fill="none" xmlns="http://www.w3.org/2000/svg">
<g clip-path="url(#clip0_2_38025)">
<path d="M11.25 0C5.20433 0 0.25 4.95433 0.25 11C0.25 17.0457 5.20433 22 11.25 22C17.2957 22 22.25 17.0457 22.25 11C22.25 4.95433 17.2957 0 11.25 0Z" fill="#16BC0D"/>
<path d="M22.25 11C22.25 17.0457 17.2957 22 11.25 22V0C17.2957 0 22.25 4.95433 22.25 11Z" fill="#0FA227"/>
<path d="M4.41412 10.4331L6.2356 8.61179L9.88358 12.2598L16.2644 5.87891L18.0859 7.70021L9.88358 15.9024L4.41412 10.4331Z" fill="#E6E6FF"/>
<path d="M11.25 14.5359L18.0859 7.70021L16.2644 5.87891L11.25 10.8933V14.5359Z" fill="#C3C3E5"/>
</g>
<defs>
<clipPath id="clip0_2_38025">
<rect width="22" height="22" fill="white" transform="translate(0.25)"/>
</clipPath>
</defs>
</svg>
