<svg width="18" height="14" viewBox="0 0 18 14" fill="none" xmlns="http://www.w3.org/2000/svg">
<path d="M0.498543 11.237C0.498543 10.8076 0.609376 10.4243 0.831043 10.0872C1.05271 9.75016 1.34875 9.48793 1.71917 9.30057C2.51111 8.91321 3.30743 8.61453 4.10813 8.40453C4.90896 8.19467 5.78903 8.08974 6.74834 8.08974C7.70778 8.08974 8.58785 8.19467 9.38854 8.40453C10.1894 8.61453 10.9858 8.91321 11.7777 9.30057C12.1481 9.48793 12.4442 9.75016 12.6658 10.0872C12.8875 10.4243 12.9983 10.8076 12.9983 11.237V11.8237C12.9983 12.1591 12.8752 12.454 12.629 12.7083C12.3827 12.9626 12.0838 13.0897 11.7323 13.0897H1.76438C1.41299 13.0897 1.11417 12.9666 0.867918 12.7204C0.621668 12.474 0.498543 12.1751 0.498543 11.8237V11.237ZM16.2356 13.0897H14.3429C14.4476 12.8985 14.5275 12.6949 14.5825 12.4791C14.6375 12.2633 14.665 12.0448 14.665 11.8237V11.1345C14.665 10.5876 14.5311 10.0663 14.2633 9.57057C13.9954 9.07502 13.6154 8.64981 13.1233 8.29495C13.6821 8.37828 14.2126 8.50724 14.7148 8.68182C15.2169 8.85655 15.696 9.063 16.1523 9.3012C16.5828 9.53092 16.9153 9.80168 17.1498 10.1135C17.3842 10.4252 17.5015 10.7655 17.5015 11.1345V11.8237C17.5015 12.1751 17.3783 12.474 17.1321 12.7204C16.8858 12.9666 16.587 13.0897 16.2356 13.0897ZM6.74834 6.74349C5.94625 6.74349 5.25965 6.45793 4.68854 5.88682C4.11743 5.31557 3.83188 4.62891 3.83188 3.82682C3.83188 3.02474 4.11743 2.33814 4.68854 1.76703C5.25965 1.19578 5.94625 0.910156 6.74834 0.910156C7.55042 0.910156 8.23709 1.19578 8.80834 1.76703C9.37945 2.33814 9.665 3.02474 9.665 3.82682C9.665 4.62891 9.37945 5.31557 8.80834 5.88682C8.23709 6.45793 7.55042 6.74349 6.74834 6.74349ZM13.9438 3.82682C13.9438 4.62891 13.6582 5.31557 13.0871 5.88682C12.516 6.45793 11.8294 6.74349 11.0273 6.74349C10.9333 6.74349 10.8136 6.7328 10.6683 6.71141C10.5229 6.69002 10.4033 6.66654 10.3094 6.64099C10.638 6.24585 10.8906 5.80752 11.0671 5.32599C11.2435 4.84446 11.3317 4.34446 11.3317 3.82599C11.3317 3.30738 11.2417 2.80925 11.0617 2.33161C10.8817 1.85411 10.6309 1.41453 10.3094 1.01286C10.429 0.970087 10.5486 0.942309 10.6683 0.929531C10.7879 0.916614 10.9076 0.910156 11.0273 0.910156C11.8294 0.910156 12.516 1.19578 13.0871 1.76703C13.6582 2.33814 13.9438 3.02474 13.9438 3.82682ZM1.74833 11.8397H11.7483V11.237C11.7483 11.063 11.7048 10.9081 11.6177 10.7724C11.5308 10.6368 11.3927 10.5181 11.2035 10.4166C10.5177 10.063 9.81153 9.79509 9.085 9.61287C8.35847 9.43078 7.57959 9.33974 6.74834 9.33974C5.91722 9.33974 5.1384 9.43078 4.41188 9.61287C3.68535 9.79509 2.97917 10.063 2.29333 10.4166C2.10417 10.5181 1.96604 10.6368 1.87896 10.7724C1.79188 10.9081 1.74833 11.063 1.74833 11.237V11.8397ZM6.74834 5.49349C7.20667 5.49349 7.59903 5.3303 7.92542 5.00391C8.25181 4.67752 8.415 4.28516 8.415 3.82682C8.415 3.36849 8.25181 2.97613 7.92542 2.64974C7.59903 2.32335 7.20667 2.16016 6.74834 2.16016C6.29 2.16016 5.89764 2.32335 5.57125 2.64974C5.24486 2.97613 5.08167 3.36849 5.08167 3.82682C5.08167 4.28516 5.24486 4.67752 5.57125 5.00391C5.89764 5.3303 6.29 5.49349 6.74834 5.49349Z" fill="#00DB6C"/>
</svg>
