<svg width="20" height="20" viewBox="0 0 20 20" fill="none" xmlns="http://www.w3.org/2000/svg">
<g clip-path="url(#clip0_2_38008)">
<path d="M10.0977 11.5859H15.2383C17.8672 11.5859 20 13.7187 20 16.3477C20 17.4062 19.1406 18.2656 18.082 18.2656H7.25781C6.19922 18.2656 5.33984 17.4062 5.33984 16.3477C5.33984 13.7148 7.46875 11.5859 10.0977 11.5859Z" fill="#046EFF"/>
<path d="M12.668 10.2266C15.013 10.2266 16.9141 8.32552 16.9141 5.98047C16.9141 3.63542 15.013 1.73438 12.668 1.73438C10.3229 1.73438 8.42188 3.63542 8.42188 5.98047C8.42188 8.32552 10.3229 10.2266 12.668 10.2266Z" fill="#046EFF"/>
<path d="M4.76172 11.5859H9.90234C12.5312 11.5859 14.6641 13.7187 14.6641 16.3477C14.6641 17.4062 13.8047 18.2656 12.7461 18.2656H1.91797C0.859375 18.2617 0 17.4062 0 16.3437C0 13.7148 2.13281 11.5859 4.76172 11.5859Z" fill="#00347B"/>
<path d="M7.33203 10.2266C9.67708 10.2266 11.5781 8.32552 11.5781 5.98047C11.5781 3.63542 9.67708 1.73438 7.33203 1.73438C4.98698 1.73438 3.08594 3.63542 3.08594 5.98047C3.08594 8.32552 4.98698 10.2266 7.33203 10.2266Z" fill="#00347B"/>
</g>
<defs>
<clipPath id="clip0_2_38008">
<rect width="20" height="20" fill="white"/>
</clipPath>
</defs>
</svg>
