<svg width="20" height="20" viewBox="0 0 20 20" fill="none" xmlns="http://www.w3.org/2000/svg">
<path d="M4.21648 17C3.8228 17 3.48648 16.8606 3.20753 16.5818C2.92872 16.3028 2.78931 15.9665 2.78931 15.5728V6.7323C2.5576 6.61283 2.36806 6.44303 2.22069 6.2229C2.07345 6.00276 1.99984 5.74895 1.99984 5.46145V3.42717C1.99984 3.03349 2.13924 2.69717 2.41806 2.41822C2.69701 2.13941 3.03332 2 3.42701 2H15.5727C15.9663 2 16.3027 2.13941 16.5816 2.41822C16.8604 2.69717 16.9998 3.03349 16.9998 3.42717V5.46145C16.9998 5.74895 16.9262 6.00276 16.779 6.2229C16.6316 6.44303 16.4421 6.61283 16.2104 6.7323V15.5728C16.2104 15.9665 16.071 16.3028 15.7921 16.5818C15.5132 16.8606 15.1769 17 14.7832 17H4.21648ZM3.97352 6.88862V15.5349C3.97352 15.6159 4.0026 15.6829 4.06076 15.7361C4.11905 15.7892 4.19122 15.8158 4.27727 15.8158H14.7832C14.8541 15.8158 14.9123 15.793 14.9579 15.7475C15.0034 15.702 15.0262 15.6437 15.0262 15.5728V6.88862H3.97352ZM3.42701 5.70441H15.5727C15.6436 5.70441 15.7018 5.68164 15.7473 5.63612C15.7929 5.59059 15.8156 5.53237 15.8156 5.46145V3.42717C15.8156 3.35625 15.7929 3.29803 15.7473 3.2525C15.7018 3.20697 15.6436 3.18421 15.5727 3.18421H3.42701C3.35609 3.18421 3.29786 3.20697 3.25234 3.2525C3.20681 3.29803 3.18405 3.35625 3.18405 3.42717V5.46145C3.18405 5.53237 3.20681 5.59059 3.25234 5.63612C3.29786 5.68164 3.35609 5.70441 3.42701 5.70441ZM7.8526 10.6311H11.1548C11.3177 10.6311 11.452 10.577 11.5578 10.4687C11.6636 10.3603 11.7165 10.2246 11.7165 10.0617C11.7165 9.89882 11.6636 9.76447 11.5578 9.65868C11.452 9.55289 11.3177 9.5 11.1548 9.5H7.8449C7.68201 9.5 7.54767 9.55289 7.44188 9.65868C7.33609 9.76447 7.28319 9.89882 7.28319 10.0617C7.28319 10.2246 7.33734 10.3603 7.44563 10.4687C7.55392 10.577 7.68957 10.6311 7.8526 10.6311Z" fill="#0D8BFA"/>
</svg>
