<svg width="20" height="20" viewBox="0 0 20 20" fill="none" xmlns="http://www.w3.org/2000/svg">
<path d="M16.9998 5.33203V13.7206C16.9998 14.0928 16.8709 14.4079 16.613 14.6658C16.3551 14.9237 16.04 15.0526 15.6678 15.0526H4.33186C3.95963 15.0526 3.64457 14.9237 3.38668 14.6658C3.12878 14.4079 2.99984 14.0928 2.99984 13.7206V5.33203C2.99984 4.9598 3.12878 4.64474 3.38668 4.38684C3.64457 4.12895 3.95963 4 4.33186 4H15.6678C16.04 4 16.3551 4.12895 16.613 4.38684C16.8709 4.64474 16.9998 4.9598 16.9998 5.33203ZM4.1051 6.87663H15.8946V5.33203C15.8946 5.27529 15.8709 5.22334 15.8237 5.17618C15.7765 5.1289 15.7245 5.10526 15.6678 5.10526H4.33186C4.27513 5.10526 4.22318 5.1289 4.17602 5.17618C4.12874 5.22334 4.1051 5.27529 4.1051 5.33203V6.87663ZM4.1051 9.22863V13.7206C4.1051 13.7773 4.12874 13.8293 4.17602 13.8764C4.22318 13.9237 4.27513 13.9474 4.33186 13.9474H15.6678C15.7245 13.9474 15.7765 13.9237 15.8237 13.8764C15.8709 13.8293 15.8946 13.7773 15.8946 13.7206V9.22863H4.1051Z" fill="#9952ED"/>
</svg>
