<svg width="21" height="18" viewBox="0 0 21 18" fill="none" xmlns="http://www.w3.org/2000/svg">
<path d="M10.5977 10.5859H15.7383C18.3672 10.5859 20.5 12.7187 20.5 15.3477C20.5 16.4062 19.6406 17.2656 18.582 17.2656H7.75781C6.69922 17.2656 5.83984 16.4062 5.83984 15.3477C5.83984 12.7148 7.96875 10.5859 10.5977 10.5859Z" fill="#C9A8F2"/>
<path d="M13.168 9.22656C15.513 9.22656 17.4141 7.32552 17.4141 4.98047C17.4141 2.63542 15.513 0.734375 13.168 0.734375C10.8229 0.734375 8.92188 2.63542 8.92188 4.98047C8.92188 7.32552 10.8229 9.22656 13.168 9.22656Z" fill="#C9A8F2"/>
<path d="M5.26172 10.5859H10.4023C13.0312 10.5859 15.1641 12.7187 15.1641 15.3477C15.1641 16.4062 14.3047 17.2656 13.2461 17.2656H2.41797C1.35937 17.2617 0.5 16.4062 0.5 15.3437C0.5 12.7148 2.63281 10.5859 5.26172 10.5859Z" fill="#8B2CDE"/>
<path d="M7.83203 9.22656C10.1771 9.22656 12.0781 7.32552 12.0781 4.98047C12.0781 2.63542 10.1771 0.734375 7.83203 0.734375C5.48698 0.734375 3.58594 2.63542 3.58594 4.98047C3.58594 7.32552 5.48698 9.22656 7.83203 9.22656Z" fill="#8B2CDE"/>
</svg>
