<svg width="18" height="16" viewBox="0 0 18 16" fill="none" xmlns="http://www.w3.org/2000/svg">
<path d="M3.2275 15.2913C2.80667 15.2913 2.45042 15.1455 2.15875 14.8538C1.86708 14.5622 1.72125 14.2059 1.72125 13.7849V7.1278C1.38569 6.85224 1.13382 6.49461 0.965625 6.05488C0.797291 5.6153 0.793819 5.14072 0.955208 4.63113L1.79812 1.8778C1.90924 1.52738 2.09778 1.24481 2.36375 1.03009C2.62986 0.815369 2.94771 0.708008 3.31729 0.708008H14.6923C15.062 0.708008 15.3777 0.810578 15.6394 1.01572C15.9012 1.22086 16.0919 1.50294 16.2115 1.86197L17.0704 4.63113C17.2318 5.14072 17.2283 5.6137 17.06 6.05009C16.8918 6.48662 16.6399 6.8512 16.3044 7.14384V13.7849C16.3044 14.2059 16.1585 14.5622 15.8669 14.8538C15.5752 15.1455 15.219 15.2913 14.7981 15.2913H3.2275ZM10.8463 6.54134C11.3014 6.54134 11.6435 6.40217 11.8727 6.12384C12.1019 5.84551 12.1956 5.54662 12.154 5.22717L11.6475 1.95801H9.63771V5.24967C9.63771 5.60009 9.75632 5.90301 9.99354 6.15842C10.2308 6.4137 10.515 6.54134 10.8463 6.54134ZM7.09625 6.54134C7.47972 6.54134 7.79083 6.4137 8.02958 6.15842C8.26847 5.90301 8.38792 5.60009 8.38792 5.24967V1.95801H6.37813L5.87187 5.25926C5.82687 5.55523 5.91979 5.84294 6.15063 6.12238C6.38146 6.40169 6.69667 6.54134 7.09625 6.54134ZM3.38792 6.54134C3.69667 6.54134 3.96215 6.4337 4.18437 6.21842C4.4066 6.00315 4.54389 5.73259 4.59625 5.40676L5.08646 1.95801H3.31729C3.22646 1.95801 3.15437 1.97801 3.10104 2.01801C3.04757 2.05815 3.0075 2.11829 2.98083 2.19842L2.17937 4.90988C2.06937 5.2678 2.12125 5.62919 2.335 5.99405C2.54861 6.35891 2.89958 6.54134 3.38792 6.54134ZM14.6379 6.54134C15.0887 6.54134 15.4338 6.36426 15.6731 6.01009C15.9124 5.65592 15.9701 5.28919 15.8463 4.90988L15.0031 2.18238C14.9765 2.10224 14.9365 2.04481 14.8831 2.01009C14.8297 1.97537 14.7575 1.95801 14.6667 1.95801H12.9392L13.4294 5.40676C13.4817 5.73259 13.619 6.00315 13.8413 6.21842C14.0635 6.4337 14.329 6.54134 14.6379 6.54134ZM3.2275 14.0413H14.7981C14.8728 14.0413 14.9342 14.0173 14.9823 13.9693C15.0305 13.9212 15.0546 13.8597 15.0546 13.7849V7.71759C14.9637 7.75078 14.8878 7.77134 14.8269 7.77926C14.766 7.78731 14.7031 7.79134 14.6379 7.79134C14.2629 7.79134 13.9331 7.72349 13.6483 7.5878C13.3636 7.45211 13.0876 7.23467 12.8204 6.93551C12.5865 7.1962 12.3099 7.40405 11.9904 7.55905C11.671 7.71391 11.3067 7.79134 10.8975 7.79134C10.5439 7.79134 10.2106 7.71787 9.8975 7.57092C9.58444 7.42412 9.28958 7.21231 9.01292 6.93551C8.75542 7.21231 8.46375 7.42412 8.13792 7.57092C7.81194 7.71787 7.48181 7.79134 7.1475 7.79134C6.77139 7.79134 6.41882 7.72322 6.08979 7.58697C5.76076 7.45072 5.47125 7.23356 5.22125 6.93551C4.87069 7.28592 4.54771 7.5162 4.25229 7.62634C3.95701 7.73634 3.66889 7.79134 3.38792 7.79134C3.32264 7.79134 3.25528 7.78731 3.18583 7.77926C3.11639 7.77134 3.04479 7.75078 2.97104 7.71759V13.7849C2.97104 13.8597 2.99514 13.9212 3.04333 13.9693C3.09139 14.0173 3.15278 14.0413 3.2275 14.0413Z" fill="#E76AC2"/>
</svg>
