<svg width="96" height="97" viewBox="0 0 96 97" fill="none" xmlns="http://www.w3.org/2000/svg">
<g clip-path="url(#clip0_1179_5972)">
<path d="M74.9775 9.0337L71.2108 7.09083C70.6185 6.78539 69.8764 6.80133 69.0645 7.19602C51.6594 15.6611 34.1936 25.745 16.7884 37.3779C14.9348 38.6169 13.4453 41.4103 13.269 43.9783C12.1395 60.4438 12.1395 76.3646 13.269 91.5258C13.3667 92.838 13.8699 93.7505 14.6143 94.1506L18.2153 96.2289L20.9728 91.9929C36.9917 83.9681 53.0537 74.5816 69.0645 63.8806C70.9183 62.6416 72.4078 59.8483 72.5839 57.2803C73.6468 41.7856 73.7089 26.7738 72.7712 12.4228L74.9775 9.0337Z" fill="url(#paint0_linear_1179_5972)"/>
<path d="M72.7364 9.30947C55.3311 17.7743 37.8653 27.8581 20.4603 39.4912C18.6064 40.7302 17.1171 43.5235 16.9409 46.0915C15.8114 62.557 15.8114 78.4778 16.9409 93.6391C17.1171 96.0037 18.6064 97.0771 20.4603 96.1756C37.8653 87.7107 55.3313 77.627 72.7364 65.9939C74.59 64.7549 76.0795 61.9615 76.2558 59.3935C77.3853 42.928 77.3853 27.0072 76.2558 11.846C76.0795 9.48141 74.59 8.40797 72.7364 9.30947Z" fill="url(#paint1_linear_1179_5972)"/>
<path d="M20.0391 89.3672L41.5929 57.9766L44.7643 61.5991L20.0391 89.3672Z" fill="url(#paint2_linear_1179_5972)"/>
<path d="M15.8957 94.8775L76.2536 59.3815C77.3824 42.9202 77.3822 27.0033 76.2529 11.8454C76.2296 11.5338 76.1827 11.2456 76.116 10.9805L75.9137 11.9275L13.2788 43.8796C13.2761 43.9118 13.2712 43.9447 13.269 43.9769C12.1395 60.4424 12.1395 76.3632 13.269 91.5245C13.3667 92.8366 13.8699 93.7492 14.6143 94.1493L15.8957 94.8888V94.8775Z" fill="url(#paint3_linear_1179_5972)"/>
<path d="M46.5982 52.7422L16.9407 93.6388L15.8984 94.889L18.2182 96.2278L18.221 96.2236C19.2866 96.8915 20.5295 96.1411 20.5295 96.1411C37.9117 87.6834 55.3543 77.6111 72.7363 65.9938C74.5899 64.7548 76.0794 61.9614 76.2556 59.3934L46.5982 52.7422Z" fill="url(#paint4_linear_1179_5972)"/>
<path d="M20.0391 47.918C20.0391 47.918 39.9759 61.877 43.572 62.5139C47.9509 63.2896 51.9088 54.304 51.9088 54.304L20.0391 47.918Z" fill="url(#paint5_linear_1179_5972)"/>
<path d="M71.2073 7.09083C70.6149 6.78539 69.8728 6.80133 69.0609 7.19602C51.6559 15.6609 34.1901 25.7448 16.7848 37.3777C14.9316 38.6163 13.4422 41.409 13.2656 43.9764L16.9343 46.092L74.9739 9.03352L71.2073 7.09083Z" fill="url(#paint6_linear_1179_5972)"/>
<path d="M76.2526 11.8456C76.2526 9.33296 74.7108 8.16746 72.8262 9.25533L72.733 9.30914C55.3279 17.7738 37.8619 27.8578 20.4569 39.4908L20.3639 39.5446C18.4795 40.6327 16.9375 43.5785 16.9375 46.0912L42.5359 61.1703C44.86 62.5395 48.3299 60.536 50.6539 56.4834L76.2526 11.8456Z" fill="url(#paint7_linear_1179_5972)"/>
<path d="M72.9651 33.559L54.9609 24.832V30.8213V32.7927V33.851C54.9609 35.186 55.7726 35.7995 56.7739 35.2214C56.8412 35.1826 56.9051 35.156 56.9672 35.1352V39.1387V39.1597V39.1651L56.9674 39.1647C56.9704 39.7763 57.1468 40.2867 57.4978 40.552L59.1045 41.7667C59.8125 42.302 60.9604 41.6392 61.6684 40.2863C62.3134 39.0541 63.4159 39.0265 63.4159 40.2425C63.4159 41.5775 64.2276 42.1912 65.2288 41.6131L67.5009 40.3012C68.3044 39.8373 68.9843 38.7475 69.2218 37.6452C69.3101 37.2353 69.5614 36.8793 69.93 36.6794L71.3985 35.8831C72.2692 35.4112 72.8542 34.5434 72.9651 33.559Z" fill="url(#paint8_linear_1179_5972)"/>
<path d="M67.4737 34.5849C67.4737 34.5849 66.3468 30.9015 68.9056 32.4716C71.4644 34.0417 69.8664 36.017 69.8664 36.017L67.4737 34.5849Z" fill="url(#paint9_linear_1179_5972)"/>
<path d="M82.9052 10.4657L82.9037 10.4648L80.8086 9.25391C80.8086 9.25391 79.7691 10.0168 80.6995 10.8988C81.6301 11.7808 82.9052 10.4657 82.9052 10.4657Z" fill="url(#paint10_linear_1179_5972)"/>
<path d="M79.4272 4.03709C79.3808 4.00203 73.4668 0.588403 73.4668 0.588403V0.588966C72.7624 0.251841 71.7399 0.896091 71.0816 2.12759L68.73 0.769341V0.769528C68.4069 0.558403 67.9753 0.564403 67.5009 0.838341L65.2288 2.15028C64.2276 2.72834 63.4159 4.27915 63.4159 5.61415C63.4159 6.83028 62.3132 8.07584 61.6684 7.58834C60.9604 7.05322 59.8125 7.71584 59.1045 9.06865L57.4978 12.1384C56.7898 13.4912 56.7898 15.0216 57.4978 15.5569C58.1428 16.0444 57.6861 17.7784 56.7739 18.3049C55.7726 18.883 54.9609 20.4338 54.9609 21.7688V24.7984C54.9609 25.5278 55.2036 26.0412 55.5868 26.2632L55.5866 26.2633L57.7251 27.4988C57.6756 27.6876 57.6009 27.8839 57.4978 28.081C56.7898 29.4338 56.7898 30.9642 57.4978 31.4995L65.0227 36.141L65.0229 36.1407C65.7277 36.525 79.4272 4.03709 79.4272 4.03709Z" fill="url(#paint11_linear_1179_5972)"/>
<path d="M61.4338 29.6391L64.3583 21.196L57.5914 17.2891C57.4123 17.7134 57.1275 18.0996 56.7739 18.3038C55.7726 18.8819 54.9609 20.4327 54.9609 21.7677V24.7973C54.9609 25.5267 55.2036 26.0401 55.5868 26.2621L55.5866 26.2624L57.7251 27.4979L61.4338 29.6391Z" fill="url(#paint12_linear_1179_5972)"/>
<path d="M70.5784 10.9406C72.2066 8.71723 74.5716 4.14936 74.5716 4.14936L71.0811 2.12773L68.7294 0.769483C68.4064 0.558358 67.9747 0.564546 67.5004 0.838483L65.2282 2.15023C64.227 2.7283 63.4153 4.27911 63.4153 5.61411C63.4153 6.76142 62.4339 7.93442 61.7812 7.65373L67.4698 10.9404C67.4698 10.9406 68.9501 13.1638 70.5784 10.9406Z" fill="url(#paint13_linear_1179_5972)"/>
<path d="M61.4359 29.6414L57.727 27.5C57.6775 27.6888 57.6029 27.8851 57.4998 28.0822C56.7917 29.435 56.7917 30.9654 57.4998 31.5005L65.0247 36.1421L64.0096 29.0913L61.4359 29.6414Z" fill="url(#paint14_linear_1179_5972)"/>
<path d="M79.4238 4.03709C79.3773 4.00203 73.4633 0.588403 73.4633 0.588403V0.588966C72.7589 0.251841 71.7364 0.896091 71.0781 2.12759L74.5684 4.14922C74.5684 4.14922 73.9143 6.71084 75.9205 7.13253C77.9268 7.55403 79.4236 4.03728 79.4238 4.03709Z" fill="url(#paint15_linear_1179_5972)"/>
<path d="M81.7607 10.5823C80.8486 11.109 80.3918 9.90243 81.0368 8.67018C81.7448 7.31737 81.7448 5.78699 81.0368 5.25168L79.4301 4.03706C78.7221 3.50174 77.5743 4.16456 76.8663 5.51718C76.2213 6.74943 75.1186 6.77718 75.1186 5.56106C75.1186 4.22606 74.3069 3.61256 73.3056 4.19062L71.0335 5.50256C70.0323 6.08062 69.2206 7.63143 69.2206 8.96643C69.2206 10.1826 68.1179 11.4281 67.4731 10.9406C66.7651 10.4053 65.6172 11.0681 64.9092 12.4207L63.3025 15.4907C62.5945 16.8435 62.5945 18.3739 63.3025 18.9092C63.9475 19.3967 63.4908 21.1307 62.5786 21.6572C61.5773 22.2352 60.7656 23.7861 60.7656 25.1211V28.1507C60.7656 29.4857 61.5773 30.0992 62.5786 29.5211C63.4906 28.9946 63.9473 30.2012 63.3025 31.4332C62.5945 32.7861 62.5945 34.3164 63.3025 34.8517L64.9092 36.0664C65.6172 36.6017 66.7651 35.9389 67.4731 34.5861C68.1179 33.3538 69.2206 33.3262 69.2206 34.5422C69.2206 35.8772 70.0323 36.4909 71.0335 35.9128L73.3056 34.6009C74.3069 34.0228 75.1186 32.472 75.1186 31.137C75.1186 29.9209 76.2213 28.6751 76.8663 29.1626C77.5743 29.6979 78.7221 29.0351 79.4301 27.6823L81.0368 24.6124C81.7448 23.2597 81.7448 21.7292 81.0368 21.1939C80.3918 20.7064 80.8486 18.9724 81.7607 18.4459C82.762 17.8678 83.5737 16.317 83.5737 14.982V11.9527C83.5737 10.6177 82.762 10.0042 81.7607 10.5823Z" fill="url(#paint16_linear_1179_5972)"/>
<path d="M78.6509 16.3063C78.6509 21.0821 75.7473 26.6302 72.1653 28.6982C68.5833 30.7661 65.6797 28.5711 65.6797 23.7952C65.6797 19.0194 68.5833 13.4713 72.1653 11.4034C75.7473 9.33525 78.6509 11.5303 78.6509 16.3063Z" fill="url(#paint17_linear_1179_5972)"/>
<path d="M69.4806 25.7414L74.7719 14.3146L71.0607 12.1719C68.0658 14.5895 65.7737 19.3394 65.6875 23.5514L69.4806 25.7414Z" fill="url(#paint18_linear_1179_5972)"/>
<path d="M76.2742 17.6827C76.2742 20.7063 74.436 24.2186 72.1684 25.5279C69.9007 26.8372 68.0625 25.4474 68.0625 22.4238C68.0625 19.4002 69.9007 15.8879 72.1684 14.5786C74.4358 13.2695 76.2742 14.6591 76.2742 17.6827Z" fill="url(#paint19_linear_1179_5972)"/>
</g>
<defs>
<linearGradient id="paint0_linear_1179_5972" x1="43.6997" y1="84.1179" x2="43.6997" y2="37.0798" gradientUnits="userSpaceOnUse">
<stop stop-color="#C5BAEB"/>
<stop offset="1" stop-color="#D7D1EB"/>
</linearGradient>
<linearGradient id="paint1_linear_1179_5972" x1="46.5983" y1="84.1171" x2="46.5983" y2="37.079" gradientUnits="userSpaceOnUse">
<stop stop-color="#C5BAEB"/>
<stop offset="1" stop-color="#D7D1EB"/>
</linearGradient>
<linearGradient id="paint2_linear_1179_5972" x1="50.2693" y1="49.9986" x2="23.112" y2="87.4911" gradientUnits="userSpaceOnUse">
<stop stop-color="#A996EB"/>
<stop offset="1" stop-color="#A996EB" stop-opacity="0"/>
</linearGradient>
<linearGradient id="paint3_linear_1179_5972" x1="14.4598" y1="52.9347" x2="18.3829" y2="52.9347" gradientUnits="userSpaceOnUse">
<stop stop-color="#A996EB"/>
<stop offset="1" stop-color="#A996EB" stop-opacity="0"/>
</linearGradient>
<linearGradient id="paint4_linear_1179_5972" x1="46.0769" y1="113.262" x2="46.0769" y2="50.4635" gradientUnits="userSpaceOnUse">
<stop stop-color="#C5BAEB"/>
<stop offset="1" stop-color="#E9E5F6"/>
</linearGradient>
<linearGradient id="paint5_linear_1179_5972" x1="36.2934" y1="50.099" x2="33.315" y2="59.5298" gradientUnits="userSpaceOnUse">
<stop stop-color="#A996EB"/>
<stop offset="1" stop-color="#A996EB" stop-opacity="0"/>
</linearGradient>
<linearGradient id="paint6_linear_1179_5972" x1="27.0142" y1="50.8871" x2="32.4017" y2="42.8608" gradientUnits="userSpaceOnUse">
<stop stop-color="#D7D1EB"/>
<stop offset="1" stop-color="#F2EFFA"/>
</linearGradient>
<linearGradient id="paint7_linear_1179_5972" x1="46.5951" y1="66.7173" x2="46.5951" y2="30.4968" gradientUnits="userSpaceOnUse">
<stop stop-color="#D7D1EB"/>
<stop offset="1" stop-color="#F2EFFA"/>
</linearGradient>
<linearGradient id="paint8_linear_1179_5972" x1="63.963" y1="34.313" x2="63.963" y2="43.943" gradientUnits="userSpaceOnUse">
<stop stop-color="#A996EB"/>
<stop offset="1" stop-color="#A996EB" stop-opacity="0"/>
</linearGradient>
<linearGradient id="paint9_linear_1179_5972" x1="68.8428" y1="33.8191" x2="67.547" y2="36.0637" gradientUnits="userSpaceOnUse">
<stop stop-color="#43386B"/>
<stop offset="0.556" stop-color="#594A8E"/>
<stop offset="0.9916" stop-color="#7662BD"/>
</linearGradient>
<linearGradient id="paint10_linear_1179_5972" x1="81.0544" y1="11.1428" x2="82.648" y2="8.38278" gradientUnits="userSpaceOnUse">
<stop stop-color="#43386B"/>
<stop offset="0.556" stop-color="#594A8E"/>
<stop offset="0.9916" stop-color="#7662BD"/>
</linearGradient>
<linearGradient id="paint11_linear_1179_5972" x1="63.9718" y1="19.3932" x2="66.9424" y2="14.2482" gradientUnits="userSpaceOnUse">
<stop stop-color="#43386B"/>
<stop offset="0.556" stop-color="#594A8E"/>
<stop offset="0.9916" stop-color="#7662BD"/>
</linearGradient>
<linearGradient id="paint12_linear_1179_5972" x1="57.2076" y1="26.8656" x2="61.2128" y2="19.9285" gradientUnits="userSpaceOnUse">
<stop stop-color="#43386B"/>
<stop offset="0.556" stop-color="#594A8E"/>
<stop offset="0.9916" stop-color="#7662BD"/>
</linearGradient>
<linearGradient id="paint13_linear_1179_5972" x1="66.0412" y1="9.53117" x2="69.246" y2="3.98042" gradientUnits="userSpaceOnUse">
<stop stop-color="#43386B"/>
<stop offset="0.556" stop-color="#594A8E"/>
<stop offset="0.9916" stop-color="#7662BD"/>
</linearGradient>
<linearGradient id="paint14_linear_1179_5972" x1="62.7308" y1="29.4746" x2="59.2015" y2="35.5876" gradientUnits="userSpaceOnUse">
<stop stop-color="#43386B"/>
<stop offset="0.556" stop-color="#594A8E"/>
<stop offset="0.9916" stop-color="#7662BD"/>
</linearGradient>
<linearGradient id="paint15_linear_1179_5972" x1="73.8513" y1="5.55172" x2="76.1219" y2="1.61872" gradientUnits="userSpaceOnUse">
<stop stop-color="#43386B"/>
<stop offset="0.556" stop-color="#594A8E"/>
<stop offset="0.9916" stop-color="#7662BD"/>
</linearGradient>
<linearGradient id="paint16_linear_1179_5972" x1="72.1698" y1="39.8421" x2="72.1698" y2="1.03593" gradientUnits="userSpaceOnUse">
<stop stop-color="#A996EB"/>
<stop offset="1" stop-color="#C5BAEB"/>
</linearGradient>
<linearGradient id="paint17_linear_1179_5972" x1="77.1189" y1="11.4709" x2="67.2117" y2="28.6305" gradientUnits="userSpaceOnUse">
<stop stop-color="#43386B"/>
<stop offset="0.556" stop-color="#594A8E"/>
<stop offset="0.9916" stop-color="#7662BD"/>
</linearGradient>
<linearGradient id="paint18_linear_1179_5972" x1="67.7714" y1="22.4669" x2="72.5965" y2="14.1097" gradientUnits="userSpaceOnUse">
<stop stop-color="#43386B"/>
<stop offset="0.556" stop-color="#594A8E"/>
<stop offset="0.9916" stop-color="#7662BD"/>
</linearGradient>
<linearGradient id="paint19_linear_1179_5972" x1="72.1682" y1="39.8437" x2="72.1682" y2="13.5119" gradientUnits="userSpaceOnUse">
<stop stop-color="#A996EB"/>
<stop offset="1" stop-color="#C5BAEB"/>
</linearGradient>
<clipPath id="clip0_1179_5972">
<rect width="96" height="96" fill="white" transform="translate(0 0.5)"/>
</clipPath>
</defs>
</svg>
