<svg width="123" height="32" viewBox="0 0 123 32" fill="none" xmlns="http://www.w3.org/2000/svg">
<path fill-rule="evenodd" clip-rule="evenodd" d="M15.6116 0C24.2336 0 31.2231 7.16346 31.2231 16C31.2231 24.8365 24.2336 32 15.6116 32C6.98954 32 0 24.8365 0 16C0 7.16346 6.98954 0 15.6116 0Z" fill="white"/>
<path fill-rule="evenodd" clip-rule="evenodd" d="M20.6165 8.87309C19.9269 9.10959 19.2978 9.90564 18.712 10.5074C15.8134 13.4854 12.8112 16.4895 9.944 19.4791C9.64544 19.7904 9.36648 20.061 9.06866 20.3733C7.90709 21.5917 8.98679 23.5782 10.5907 23.143C11.1017 23.0044 11.3547 22.6875 11.6255 22.4081L14.2474 19.7211C15.4168 18.4993 16.5882 17.3342 17.7665 16.1178C18.9373 14.9091 20.0878 13.7411 21.268 12.5411C21.5706 12.2334 21.8414 11.9556 22.1393 11.6431C23.4113 10.3082 22.0247 8.39015 20.6165 8.87309Z" fill="#0B106E"/>
<path fill-rule="evenodd" clip-rule="evenodd" d="M19.4081 16.0594C19.1811 16.0207 19.1001 16.1877 18.9719 16.3212C18.8305 16.4685 18.7199 16.5775 18.5788 16.7244C17.7924 17.5424 16.7181 18.3338 17.3333 19.8748C17.5604 20.4437 18.391 21.1763 18.7818 21.5759C19.151 21.9534 19.9444 22.8925 20.4542 23.0841C21.4126 23.4443 22.2343 22.8728 22.5045 22.216C22.9275 21.1882 22.3422 20.5695 21.7949 20.0139C21.2509 19.4617 20.7015 18.8856 20.2448 18.4231C19.9575 18.1323 19.7591 17.9435 19.5796 17.4946C19.3606 16.9468 19.5042 16.2835 19.4081 16.0594Z" stroke="#0B106E" stroke-width="2.00012" stroke-miterlimit="2.61313"/>
<path fill-rule="evenodd" clip-rule="evenodd" d="M11.793 15.9287C12.0835 16.0029 12.296 15.6511 12.6575 15.2737C13.3779 14.522 14.5511 13.6178 13.877 12.0978C13.6278 11.536 12.7966 10.8023 12.4164 10.4141C12.0982 10.0892 11.2665 9.10269 10.7397 8.9066C9.82393 8.56572 8.95698 9.13224 8.69743 9.8316C8.28342 10.9472 9.0057 11.5561 9.45278 12.0149C10.0612 12.6393 11.3852 13.822 11.6573 14.5462C11.7263 14.7299 11.793 14.9725 11.8062 15.1837C11.8232 15.4577 11.7359 15.7032 11.793 15.9287Z" stroke="#0B106E" stroke-width="2.66683" stroke-miterlimit="2.61313"/>
<path d="M40.2242 21.802C39.2689 21.802 38.4549 21.5469 37.782 21.0366C37.1093 20.5264 36.635 19.8334 36.3591 18.9577C36.0833 18.0821 36.0328 17.1064 36.2078 16.0307C36.3692 14.9689 36.7392 13.9932 37.3179 13.1038C37.8964 12.2143 38.6129 11.5075 39.4674 10.9835C40.3218 10.4594 41.22 10.1974 42.1618 10.1974C43.0903 10.1974 43.8976 10.4525 44.5839 10.9628C45.2701 11.473 45.7612 12.1729 46.0572 13.0624C46.3533 13.9519 46.4206 14.9413 46.2591 16.0307C46.0976 17.0926 45.7141 18.0649 45.1086 18.9474C44.5031 19.83 43.7698 20.5264 42.9086 21.0366C42.0475 21.5469 41.1527 21.802 40.2242 21.802ZM36.2078 10.5905H37.8628L35.5013 26.0219H33.8665L36.2078 10.5905ZM40.0224 20.1885C40.7086 20.1885 41.3781 20.0058 42.0307 19.6404C42.6832 19.2749 43.2383 18.7716 43.6958 18.1304C44.1533 17.4891 44.4426 16.7754 44.5637 15.9894C44.6848 15.1895 44.641 14.4759 44.4325 13.8484C44.2239 13.221 43.8707 12.7279 43.3728 12.3694C42.875 12.0108 42.2762 11.8316 41.5765 11.8316C40.8903 11.8316 40.2209 12.0108 39.5683 12.3694C38.9157 12.7279 38.3606 13.2278 37.9032 13.8691C37.4457 14.5103 37.1564 15.2171 37.0353 15.9894C36.9142 16.7892 36.9613 17.5098 37.1766 18.151C37.3918 18.7923 37.7484 19.2922 38.2463 19.6507C38.7441 20.0093 39.3362 20.1885 40.0224 20.1885ZM51.504 21.802C50.5756 21.802 49.7648 21.5469 49.0719 21.0366C48.3789 20.5264 47.8844 19.8266 47.5884 18.9371C47.2924 18.0476 47.2251 17.0582 47.3865 15.9687C47.548 14.9068 47.9315 13.9346 48.537 13.052C49.1425 12.1694 49.8792 11.473 50.7471 10.9628C51.615 10.4525 52.5131 10.1974 53.4416 10.1974C54.3969 10.1974 55.2076 10.4525 55.8737 10.9628C56.5397 11.473 57.0107 12.166 57.2865 13.0417C57.5623 13.9174 57.6128 14.893 57.4379 15.9687C57.2764 17.0306 56.9064 18.0062 56.3278 18.8957C55.7492 19.7852 55.036 20.4919 54.1884 21.016C53.3407 21.54 52.4459 21.802 51.504 21.802ZM52.0691 20.1679C52.7553 20.1679 53.4247 19.9852 54.0773 19.6197C54.7299 19.2543 55.285 18.7544 55.7425 18.12C56.2 17.4856 56.4892 16.7754 56.6104 15.9894C56.7314 15.1895 56.6877 14.4724 56.4792 13.8381C56.2706 13.2037 55.9174 12.7073 55.4195 12.3487C54.9217 11.9902 54.3297 11.8109 53.6434 11.8109C52.9437 11.8109 52.2676 11.9936 51.615 12.3591C50.9624 12.7245 50.4074 13.2278 49.9499 13.8691C49.4923 14.5103 49.2031 15.2171 49.082 15.9894C48.9609 16.7892 49.0046 17.5063 49.2131 18.1407C49.4217 18.775 49.7749 19.2715 50.2728 19.63C50.7706 19.9886 51.3694 20.1679 52.0691 20.1679ZM57.4177 10.5905H59.0727L57.4379 21.409H55.803L57.4177 10.5905ZM63.0058 21.802C61.714 21.802 60.7923 21.3917 60.2406 20.5712C59.6889 19.7507 59.5409 18.5268 59.7966 16.8996L60.7654 10.5905H62.4002L61.3709 17.3546C61.2363 18.1959 61.344 18.8784 61.6938 19.4025C62.0437 19.9265 62.6223 20.1885 63.4296 20.1885C64.1965 20.1885 64.9265 19.9989 65.6195 19.6197C66.3124 19.2405 66.9011 18.6957 67.3855 17.9856C67.8699 17.2753 68.1996 16.4444 68.3745 15.4929L69.1415 15.7825C68.9262 16.9823 68.5023 18.0373 67.8699 18.9474C67.2375 19.8576 66.4907 20.5609 65.6296 21.0574C64.7684 21.5538 63.8938 21.802 63.0058 21.802ZM69.1213 10.5905H70.7561L68.3745 26.0219H66.7397L69.1213 10.5905ZM74.4268 9.8044L72.6506 21.409H70.9956L73.2158 7.03253H74.8708L81.3698 19.0508L83.2267 7.03253H84.8615L82.6414 21.409H80.7643L74.4268 9.8044ZM87.8258 11.0662C87.9738 10.1009 88.3304 9.22865 88.8955 8.44946C89.4606 7.67033 90.167 7.06353 91.0148 6.62917C91.8624 6.19477 92.764 5.97754 93.7193 5.97754H94.5872L94.3248 7.40485H94.0221C92.838 7.40485 91.8255 7.72204 90.9845 8.35642C90.1435 8.99075 89.6423 9.85265 89.4808 10.9421L87.8661 21.409H86.2313L87.8258 11.0662ZM84.7781 11.5627H94.1432L93.901 13.1761H84.5359L84.7781 11.5627ZM96.8478 5.97754H98.4826L96.101 21.409H94.4661L96.8478 5.97754ZM103.102 21.802C102.025 21.802 101.094 21.5538 100.306 21.0574C99.5193 20.5609 98.9474 19.8714 98.5909 18.9888C98.2343 18.1062 98.1569 17.1064 98.3587 15.9894C98.5336 14.9275 98.9541 13.9553 99.6202 13.0727C100.286 12.1901 101.094 11.4903 102.042 10.9731C102.991 10.456 103.983 10.1974 105.019 10.1974C106.271 10.1974 107.283 10.4767 108.057 11.0352C108.831 11.5937 109.349 12.3177 109.611 13.2072C109.873 14.0967 109.917 15.0241 109.742 15.9894C109.648 16.4169 109.56 16.7065 109.48 16.8582H99.9734C99.8792 17.8649 100.152 18.6647 100.791 19.2577C101.43 19.8507 102.321 20.1472 103.465 20.1472C104.219 20.1472 104.928 19.9852 105.594 19.6611C106.261 19.337 106.829 18.9267 107.3 18.4303L108.551 19.2991C107.932 20.0575 107.138 20.6643 106.17 21.1194C105.201 21.5745 104.178 21.802 103.102 21.802ZM108.148 15.2861C108.242 14.7207 108.178 14.169 107.956 13.6312C107.734 13.0934 107.364 12.6556 106.846 12.3177C106.328 11.9798 105.692 11.8109 104.939 11.8109C103.902 11.8109 102.961 12.1246 102.113 12.7521C101.265 13.3796 100.646 14.2242 100.256 15.2861H108.148ZM114.099 15.8653L110.082 10.5905H112.363L115.451 14.8103L119.871 10.5905H122.152L116.42 15.9273L120.598 21.409H118.317L115.068 16.9616L110.305 21.409H108.004L114.099 15.8653Z" fill="white"/>
</svg>
