<svg width="193" height="64" viewBox="0 0 193 64" fill="none" xmlns="http://www.w3.org/2000/svg">
<rect x="1" y="0.5" width="191" height="63" rx="11.5" fill="white"/>
<rect x="1" y="0.5" width="191" height="63" rx="11.5" stroke="#A6A6A6"/>
<path d="M31.0801 31.7822L18.2239 45.8412C18.2251 45.8437 18.2251 45.8475 18.2263 45.8499C18.6211 47.3765 19.9735 48.5 21.5795 48.5C22.2219 48.5 22.8244 48.3208 23.3413 48.0073L23.3823 47.9824L37.853 39.3791L31.0801 31.7822Z" fill="#EA4335"/>
<path d="M44.086 29.3883L44.0739 29.3796L37.8263 25.6484L30.7878 32.1018L37.8516 39.3777L44.0654 35.6838C45.1546 35.0766 45.8948 33.8934 45.8948 32.5298C45.8948 31.1737 45.1655 29.9967 44.086 29.3883Z" fill="#FBBC04"/>
<path d="M18.2236 19.1578C18.1463 19.4515 18.1053 19.76 18.1053 20.0785V44.9219C18.1053 45.2404 18.1463 45.5489 18.2248 45.8413L31.5218 32.1419L18.2236 19.1578Z" fill="#4285F4"/>
<path d="M31.175 32.5L37.8283 25.6459L23.3746 17.0115C22.8493 16.6867 22.2359 16.5001 21.5802 16.5001C19.9743 16.5001 18.6194 17.6261 18.2246 19.1539C18.2246 19.1552 18.2234 19.1564 18.2234 19.1576L31.175 32.5Z" fill="#34A853"/>
<path d="M64.1877 18.5273C64.1122 18.2904 64.0107 18.0781 63.8831 17.8906C63.7581 17.7005 63.6083 17.5391 63.4338 17.4063C63.2594 17.2708 63.0601 17.168 62.8362 17.0977C62.6148 17.0273 62.3713 16.9922 62.1057 16.9922C61.6552 16.9922 61.2489 17.1081 60.887 17.3398C60.525 17.5716 60.2385 17.9115 60.0276 18.3594C59.8193 18.8047 59.7151 19.3503 59.7151 19.9961C59.7151 20.6445 59.8206 21.1927 60.0315 21.6406C60.2424 22.0885 60.5315 22.4284 60.8987 22.6602C61.2659 22.8919 61.6838 23.0078 62.1526 23.0078C62.5875 23.0078 62.9664 22.9193 63.2893 22.7422C63.6148 22.5651 63.8661 22.3151 64.0432 21.9922C64.2229 21.6667 64.3127 21.2839 64.3127 20.8438L64.6252 20.9023H62.3362V19.9062H65.4807V20.8164C65.4807 21.4883 65.3375 22.0716 65.051 22.5664C64.7672 23.0586 64.3739 23.4388 63.8713 23.707C63.3713 23.9753 62.7984 24.1094 62.1526 24.1094C61.4286 24.1094 60.7932 23.9427 60.2463 23.6094C59.7021 23.276 59.2776 22.8034 58.9729 22.1914C58.6682 21.5768 58.5159 20.8477 58.5159 20.0039C58.5159 19.3659 58.6044 18.793 58.7815 18.2852C58.9586 17.7773 59.2073 17.3464 59.5276 16.9922C59.8505 16.6354 60.2294 16.3633 60.6643 16.1758C61.1018 15.9857 61.5797 15.8906 62.0979 15.8906C62.5302 15.8906 62.9325 15.9544 63.3049 16.082C63.6799 16.2096 64.0133 16.3906 64.3049 16.625C64.5992 16.8594 64.8427 17.138 65.0354 17.4609C65.2281 17.7812 65.3583 18.1367 65.426 18.5273H64.1877ZM67.0129 24V16H72.0286V17.0391H68.22V19.4766H71.7668V20.5117H68.22V22.9609H72.0754V24H67.0129ZM73.2463 17.0391V16H79.4377V17.0391H76.9417V24H75.7385V17.0391H73.2463ZM84.9241 16V24H83.717V16H84.9241ZM86.2874 17.0391V16H92.4788V17.0391H89.9827V24H88.7795V17.0391H86.2874ZM103.707 20C103.707 20.8542 103.551 21.5885 103.239 22.2031C102.926 22.8151 102.498 23.2865 101.953 23.6172C101.412 23.9453 100.796 24.1094 100.106 24.1094C99.413 24.1094 98.7945 23.9453 98.2502 23.6172C97.7086 23.2865 97.2815 22.8138 96.969 22.1992C96.6565 21.5846 96.5002 20.8516 96.5002 20C96.5002 19.1458 96.6565 18.4128 96.969 17.8008C97.2815 17.1862 97.7086 16.7148 98.2502 16.3867C98.7945 16.056 99.413 15.8906 100.106 15.8906C100.796 15.8906 101.412 16.056 101.953 16.3867C102.498 16.7148 102.926 17.1862 103.239 17.8008C103.551 18.4128 103.707 19.1458 103.707 20ZM102.512 20C102.512 19.349 102.406 18.8008 102.196 18.3555C101.987 17.9076 101.701 17.569 101.336 17.3398C100.974 17.1081 100.564 16.9922 100.106 16.9922C99.6448 16.9922 99.2333 17.1081 98.8713 17.3398C98.5094 17.569 98.2229 17.9076 98.012 18.3555C97.8036 18.8008 97.6995 19.349 97.6995 20C97.6995 20.651 97.8036 21.2005 98.012 21.6484C98.2229 22.0937 98.5094 22.4323 98.8713 22.6641C99.2333 22.8932 99.6448 23.0078 100.106 23.0078C100.564 23.0078 100.974 22.8932 101.336 22.6641C101.701 22.4323 101.987 22.0937 102.196 21.6484C102.406 21.2005 102.512 20.651 102.512 20ZM111.669 16V24H110.56L106.493 18.1328H106.419V24H105.212V16H106.329L110.4 21.875H110.474V16H111.669Z" fill="black"/>
<path d="M134.067 47.2129H136.225V32.5309H134.067V47.2129ZM153.496 37.8195L151.023 44.1851H150.949L148.383 37.8195H146.06L149.908 46.7161L147.715 51.6653H149.963L155.895 37.8195H153.496ZM141.263 45.5451C140.556 45.5451 139.571 45.1869 139.571 44.2978C139.571 43.1657 140.798 42.7311 141.858 42.7311C142.806 42.7311 143.253 42.939 143.829 43.222C143.661 44.5821 142.508 45.5451 141.263 45.5451ZM141.524 37.4989C139.962 37.4989 138.343 38.1977 137.675 39.7468L139.59 40.5583C139.999 39.7468 140.761 39.4814 141.561 39.4814C142.676 39.4814 143.81 40.1614 143.829 41.3711V41.5214C143.438 41.2947 142.602 40.9553 141.579 40.9553C139.516 40.9553 137.414 42.1075 137.414 44.2603C137.414 46.2251 139.106 47.4912 141.002 47.4912C142.453 47.4912 143.253 46.83 143.755 46.0548H143.829V47.1882H145.911V41.559C145.911 38.9528 143.996 37.4989 141.524 37.4989ZM128.193 39.607H125.125V34.5744H128.193C129.805 34.5744 130.721 35.9309 130.721 37.0901C130.721 38.2282 129.805 39.607 128.193 39.607ZM128.137 32.5309H122.969V47.2129H125.125V41.6506H128.137C130.528 41.6506 132.878 39.8912 132.878 37.0901C132.878 34.289 130.528 32.5309 128.137 32.5309ZM99.9531 45.5475C98.463 45.5475 97.2157 44.2802 97.2157 42.5397C97.2157 40.7803 98.463 39.4931 99.9531 39.4931C101.425 39.4931 102.578 40.7803 102.578 42.5397C102.578 44.2802 101.425 45.5475 99.9531 45.5475ZM102.43 38.6416H102.355C101.871 38.0556 100.94 37.5259 99.767 37.5259C97.3082 37.5259 95.0552 39.7198 95.0552 42.5397C95.0552 45.3396 97.3082 47.5159 99.767 47.5159C100.94 47.5159 101.871 46.9862 102.355 46.3802H102.43V47.1001C102.43 49.011 101.425 50.0328 99.8039 50.0328C98.4815 50.0328 97.6619 49.0674 97.3267 48.2534L95.4459 49.0486C95.9857 50.3734 97.4203 52 99.8039 52C102.337 52 104.479 50.4861 104.479 46.7971V37.8277H102.43V38.6416ZM105.969 47.2129H108.129V32.5297H105.969V47.2129ZM111.313 42.3694C111.257 40.4397 112.785 39.4555 113.883 39.4555C114.74 39.4555 115.466 39.8901 115.708 40.5149L111.313 42.3694ZM118.018 40.704C117.608 39.5882 116.36 37.5259 113.809 37.5259C111.276 37.5259 109.172 39.5495 109.172 42.5209C109.172 45.3208 111.257 47.5159 114.05 47.5159C116.305 47.5159 117.608 46.1159 118.148 45.302L116.472 44.1663C115.914 44.999 115.15 45.5475 114.05 45.5475C112.952 45.5475 112.17 45.0366 111.667 44.0348L118.241 41.2712L118.018 40.704ZM65.6422 39.0585V41.1773H70.6326C70.4835 42.3694 70.0928 43.2396 69.4974 43.8445C68.7703 44.5832 67.634 45.3971 65.6422 45.3971C62.5684 45.3971 60.1663 42.8803 60.1663 39.7585C60.1663 36.6356 62.5684 34.1199 65.6422 34.1199C67.2999 34.1199 68.5102 34.7823 69.4038 35.6338L70.8754 34.1387C69.6269 32.9278 67.9704 32 65.6422 32C61.4333 32 57.8948 35.4823 57.8948 39.7585C57.8948 44.0348 61.4333 47.5159 65.6422 47.5159C67.9137 47.5159 69.6269 46.7584 70.9678 45.3396C72.3469 43.9396 72.7746 41.9724 72.7746 40.3822C72.7746 39.8901 72.7377 39.4367 72.6625 39.0585H65.6422ZM78.4494 45.5475C76.9593 45.5475 75.6739 44.299 75.6739 42.5209C75.6739 40.7228 76.9593 39.4931 78.4494 39.4931C79.9383 39.4931 81.2238 40.7228 81.2238 42.5209C81.2238 44.299 79.9383 45.5475 78.4494 45.5475ZM78.4494 37.5259C75.7294 37.5259 73.5133 39.6258 73.5133 42.5209C73.5133 45.3971 75.7294 47.5159 78.4494 47.5159C81.1683 47.5159 83.3843 45.3971 83.3843 42.5209C83.3843 39.6258 81.1683 37.5259 78.4494 37.5259ZM89.2151 45.5475C87.725 45.5475 86.4396 44.299 86.4396 42.5209C86.4396 40.7228 87.725 39.4931 89.2151 39.4931C90.7052 39.4931 91.9895 40.7228 91.9895 42.5209C91.9895 44.299 90.7052 45.5475 89.2151 45.5475ZM89.2151 37.5259C86.4962 37.5259 84.2802 39.6258 84.2802 42.5209C84.2802 45.3971 86.4962 47.5159 89.2151 47.5159C91.934 47.5159 94.15 45.3971 94.15 42.5209C94.15 39.6258 91.934 37.5259 89.2151 37.5259Z" fill="black"/>
</svg>
