<svg width="96" height="96" viewBox="0 0 96 96" fill="none" xmlns="http://www.w3.org/2000/svg">
<path d="M68.8031 63.7792L78.1247 69.9936C79.7183 71.0176 81.8319 70.0112 82.0415 68.128L82.8175 60.8016H88.0031C91.5375 60.8016 94.4031 57.936 94.4031 54.4016V16.0016C94.4031 12.4672 91.5375 9.60156 88.0031 9.60156H33.6031C30.0687 9.60156 27.2031 12.4672 27.2031 16.0016V25.6016L68.8031 63.7792Z" fill="#0B106E"/>
<path d="M68.8016 32.0016V70.4016C68.8016 73.936 65.936 76.8016 62.4016 76.8016H31.6672L17.88 85.9936C16.2864 87.0176 14.1728 86.0112 13.9632 84.128L13.1872 76.8016H8.00156C4.46716 76.8016 1.60156 73.936 1.60156 70.4016V32.0016C1.60156 28.4672 4.46716 25.6016 8.00156 25.6016H62.4016C65.936 25.6016 68.8016 28.4672 68.8016 32.0016Z" fill="#0F40D3"/>
<path d="M59.1953 48C59.1953 43.5888 55.6065 40 51.1953 40C46.7841 40 43.1953 43.5888 43.1953 48V54.4C43.1953 58.8112 46.7841 62.4 51.1953 62.4C52.8225 62.4 54.3345 61.9056 55.6001 61.0672L56.4641 61.9312C56.7761 62.2432 57.1857 62.4 57.5953 62.4C58.0049 62.4 58.4145 62.2432 58.7265 61.9312C59.3521 61.3056 59.3521 60.2944 58.7265 59.6688L57.8625 58.8048C58.7009 57.5392 59.1953 56.0272 59.1953 54.4V48ZM52.3265 53.2688C51.7009 52.6432 50.6897 52.6432 50.0641 53.2688C49.4385 53.8944 49.4385 54.9056 50.0641 55.5312L53.2513 58.7184C52.6257 59.0176 51.9329 59.2 51.1953 59.2C48.5489 59.2 46.3953 57.0464 46.3953 54.4V48C46.3953 45.3536 48.5489 43.2 51.1953 43.2C53.8417 43.2 55.9953 45.3536 55.9953 48V54.4C55.9953 55.1392 55.8145 55.8304 55.5137 56.456L52.3265 53.2688Z" fill="white"/>
<path d="M33.4761 40.984C33.2281 40.3888 32.6441 40 31.9993 40C31.3545 40 30.7705 40.3888 30.5225 40.984L22.5225 60.184C22.1817 61 22.5673 61.9376 23.3833 62.2768C24.1993 62.6192 25.1353 62.2336 25.4761 61.416L28.3993 54.4H35.5993L38.5225 61.416C38.7785 62.0304 39.3721 62.4 39.9993 62.4C40.2057 62.4 40.4137 62.3616 40.6153 62.2768C41.4313 61.9376 41.8169 61 41.4761 60.184L33.4761 40.984ZM29.7321 51.2L31.9993 45.76L34.2665 51.2H29.7321Z" fill="white"/>
<path d="M19.1969 48H15.9969V43.2H22.3969C23.2817 43.2 23.9969 42.4848 23.9969 41.6C23.9969 40.7152 23.2817 40 22.3969 40H14.3969C13.5121 40 12.7969 40.7152 12.7969 41.6V60.8C12.7969 61.6848 13.5121 62.4 14.3969 62.4C15.2817 62.4 15.9969 61.6848 15.9969 60.8V51.2H19.1969C20.0817 51.2 20.7969 50.4848 20.7969 49.6C20.7969 48.7152 20.0817 48 19.1969 48Z" fill="white"/>
</svg>
