<svg width="96" height="96" viewBox="0 0 96 96" fill="none" xmlns="http://www.w3.org/2000/svg">
<path d="M81.8159 81.6265C73.2767 89.9472 61.5798 95.0427 48.6928 94.9454C22.9558 94.7511 2.06346 73.6525 2.10945 47.9148C2.15601 22.0268 23.1566 1.05469 49.0556 1.05469C61.8063 1.05469 73.37 6.13809 81.8301 14.3889C82.409 14.9534 82.4224 15.8753 81.8793 16.4743C74.3229 24.8069 69.7189 35.8661 69.7189 48.0008C69.7189 60.1353 74.3227 71.1945 81.8789 79.5269C82.4273 80.1317 82.4007 81.0568 81.8159 81.6265Z" fill="#1B52F5"/>
<path d="M26.8263 23.2776V77.8884C26.8263 80.005 25.1106 81.7208 22.994 81.7208H3.83234C1.71574 81.7208 0 80.005 0 77.8884V23.2776C0 21.161 1.71574 19.4453 3.83234 19.4453H22.994C25.1106 19.4453 26.8263 21.161 26.8263 23.2776Z" fill="#ACD1FD"/>
<path d="M86.3225 19.4453C92.392 27.3562 95.9994 37.2549 95.9994 47.9962C95.9994 61.2312 90.5226 73.1867 81.7121 81.7208H11.4964C9.3798 81.7208 7.66406 80.005 7.66406 77.8884V19.4453H86.3225Z" fill="#C7EEFD"/>
<path d="M40.2395 18.1058V24.6207H0V18.1058C0 15.9892 1.71574 14.2734 3.83234 14.2734H36.4072C38.5238 14.2734 40.2395 15.9892 40.2395 18.1058Z" fill="#0266EB"/>
<path d="M89.7741 24.6207H7.66406V18.1058C7.66406 15.9892 9.3798 14.2734 11.4964 14.2734H81.7121C84.8565 17.3192 87.5763 20.8007 89.7741 24.6207Z" fill="#0494FB"/>
<path d="M9.58234 20.0255C9.58234 21.0838 8.72447 21.9417 7.66617 21.9417C6.60787 21.9417 5.75 21.0838 5.75 20.0255C5.75 18.9672 6.60787 18.1094 7.66617 18.1094C8.72447 18.1094 9.58234 18.9672 9.58234 20.0255ZM13.4147 18.1094C12.3564 18.1094 11.4985 18.9672 11.4985 20.0255C11.4985 21.0838 12.3564 21.9417 13.4147 21.9417C14.473 21.9417 15.3308 21.0838 15.3308 20.0255C15.3308 18.9672 14.473 18.1094 13.4147 18.1094ZM19.1632 18.1094C18.1049 18.1094 17.247 18.9672 17.247 20.0255C17.247 21.0838 18.1049 21.9417 19.1632 21.9417C20.2215 21.9417 21.0793 21.0838 21.0793 20.0255C21.0793 18.9672 20.2215 18.1094 19.1632 18.1094Z" fill="#81BDFD"/>
<path d="M53.6562 46.8514V37.2706C53.6562 36.7415 54.0853 36.3125 54.6143 36.3125H94.5367C95.4791 39.9902 95.9873 43.8417 96.003 47.8095H54.6143C54.0853 47.8095 53.6562 47.3805 53.6562 46.8514ZM53.6562 60.2646V69.8454C53.6562 70.3745 54.0853 70.8035 54.6143 70.8035H90.1035C92.0919 67.2318 93.6277 63.3738 94.6333 59.3065H54.6143C54.0853 59.3065 53.6562 59.7355 53.6562 60.2646Z" fill="#ACD1FD"/>
<path d="M57.4844 42.0568C57.4844 40.9985 58.3422 40.1406 59.4005 40.1406H70.8975C71.9558 40.1406 72.8137 40.9985 72.8137 42.0568C72.8137 43.1151 71.9558 43.973 70.8975 43.973H59.4005C58.3422 43.973 57.4844 43.1151 57.4844 42.0568ZM70.8975 51.6376H59.4005C58.3422 51.6376 57.4844 52.4955 57.4844 53.5538C57.4844 54.6121 58.3422 55.47 59.4005 55.47H70.8975C71.9558 55.47 72.8137 54.6121 72.8137 53.5538C72.8137 52.4955 71.9558 51.6376 70.8975 51.6376ZM70.8975 63.1346H59.4005C58.3422 63.1346 57.4844 63.9925 57.4844 65.0508C57.4844 66.1091 58.3422 66.967 59.4005 66.967H70.8975C71.9558 66.967 72.8137 66.1091 72.8137 65.0508C72.8137 63.9925 71.9558 63.1346 70.8975 63.1346Z" fill="#0494FB"/>
<path d="M78.5625 42.0568C78.5625 40.9985 79.4204 40.1406 80.4787 40.1406H88.1433C89.2016 40.1406 90.0595 40.9985 90.0595 42.0568C90.0595 43.1151 89.2016 43.973 88.1433 43.973H80.4787C79.4204 43.973 78.5625 43.1151 78.5625 42.0568ZM88.1433 63.1346H80.4787C79.4204 63.1346 78.5625 63.9925 78.5625 65.0508C78.5625 66.1091 79.4204 66.967 80.4787 66.967H88.1433C89.2016 66.967 90.0595 66.1091 90.0595 65.0508C90.0595 63.9925 89.2016 63.1346 88.1433 63.1346ZM88.1433 51.6376H80.4787C79.4204 51.6376 78.5625 52.4955 78.5625 53.5538C78.5625 54.6121 79.4204 55.47 80.4787 55.47H88.1433C89.2016 55.47 90.0595 54.6121 90.0595 53.5538C90.0595 52.4955 89.2016 51.6376 88.1433 51.6376Z" fill="#81BDFD"/>
<path d="M5.75 53.5573C5.75 42.4454 14.7579 33.4375 25.8698 33.4375C36.9816 33.4375 45.9895 42.4454 45.9895 53.5573C45.9895 60.7021 42.2653 66.9769 36.652 70.5468C33.3978 69.238 29.7385 68.5034 25.8698 68.5034C22.001 68.5034 18.3417 69.238 15.0875 70.5468C9.47426 66.9769 5.75 60.7021 5.75 53.5573Z" fill="#01988C"/>
<path d="M45.9855 53.5573C45.9855 57.6073 44.7888 61.3777 42.7297 64.5344C39.573 66.5933 35.8026 67.7902 31.7526 67.7902C20.6407 67.7902 11.6328 58.7823 11.6328 47.6704C11.6328 43.6204 12.8295 39.85 14.8886 36.6933C18.0453 34.6341 21.8157 33.4375 25.8657 33.4375C36.9776 33.4375 45.9855 42.4454 45.9855 53.5573Z" fill="#04D481"/>
<path d="M25.871 73.677C29.9323 73.677 33.7125 72.4736 36.8746 70.404L36.2148 66.6345C35.5095 62.6044 32.01 59.6641 27.9186 59.6641H23.8232C19.7318 59.6641 16.2323 62.6044 15.5269 66.6345L14.8672 70.404C18.0294 72.4736 21.8097 73.677 25.871 73.677Z" fill="#ACD1FD"/>
<path d="M36.3268 67.267C34.8593 67.6077 33.3302 67.7881 31.7587 67.7881C26.348 67.7881 21.4361 65.6523 17.8203 62.1777C19.3594 60.6143 21.4959 59.6622 23.824 59.6622H27.9195C32.0109 59.6622 35.5104 62.6023 36.2157 66.6326L36.3268 67.267ZM22.9899 56.4359C24.6911 57.6 27.0524 57.6 28.7536 56.4359C31.2551 54.724 32.9523 51.4004 32.9523 48.2742C32.9523 45.9665 32.0275 44.2092 30.5371 43.0103C27.8915 40.882 23.8518 40.882 21.2062 43.0103C19.7158 44.2092 18.791 45.9665 18.791 48.2742C18.7914 51.4004 20.4884 54.724 22.9899 56.4359Z" fill="#FFF5F5"/>
</svg>
