<svg width="98" height="98" viewBox="0 0 98 98" fill="none" xmlns="http://www.w3.org/2000/svg">
<g clip-path="url(#clip0_235_4591)">
<rect width="98" height="98" rx="49" fill="#E5EFFE"/>
<path d="M9.63284 57L9.63337 116C9.63339 117.657 10.9765 119 12.6334 119H85.0515C86.7084 119 88.0515 117.657 88.0515 116V60.9469C88.0515 59.2901 86.7084 57.9469 85.0515 57.9469H43.2265C42.634 57.9469 42.0547 57.7715 41.5618 57.4426L37.1567 54.5043C36.6637 54.1755 36.0845 54 35.4919 54H12.6328C10.976 54 9.63282 55.3432 9.63284 57Z" fill="#AFC3FE"/>
<path d="M16.6845 86.8418C15.1404 86.8418 13.884 85.5991 13.867 84.0552L13.947 26.8487C13.9298 25.2805 15.1962 24 16.7645 24L58.9499 24C60.4953 24 61.7524 25.2449 61.7674 26.7903L61.787 83.9967C61.8022 85.5635 60.5363 86.8418 58.9694 86.8418L16.6845 86.8418Z" fill="url(#paint0_linear_235_4591)"/>
<g filter="url(#filter0_i_235_4591)">
<path d="M21.2236 48.5776C20.1343 48.5776 19.2512 47.6946 19.2512 46.6053C19.2512 45.516 20.1343 44.6329 21.2236 44.6329L55.0353 44.6328C56.1246 44.6328 57.0077 45.5159 57.0077 46.6052C57.0077 47.6945 56.1246 48.5775 55.0353 48.5775L21.2236 48.5776Z" fill="#40A0D8"/>
<path d="M21.2223 56.1863C20.133 56.1863 19.25 55.3033 19.25 54.214C19.25 53.1247 20.133 52.2416 21.2223 52.2416L55.0341 52.2415C56.1234 52.2415 57.0064 53.1246 57.0064 54.2139C57.0064 55.3032 56.1234 56.1862 55.0341 56.1862L21.2223 56.1863Z" fill="#40A0D8"/>
<path d="M21.2242 63.2302C20.1349 63.2302 19.2518 62.3471 19.2518 61.2578C19.2518 60.1685 20.1349 59.2854 21.2242 59.2854L55.0359 59.2853C56.1252 59.2853 57.0083 60.1684 57.0083 61.2577C57.0083 62.347 56.1252 63.23 55.0359 63.2301L21.2242 63.2302Z" fill="#40A0D8"/>
</g>
<path d="M21.2236 48.5776C20.1343 48.5776 19.2512 47.6946 19.2512 46.6053C19.2512 45.516 20.1343 44.6329 21.2236 44.6329L55.0353 44.6328C56.1246 44.6328 57.0077 45.5159 57.0077 46.6052C57.0077 47.6945 56.1246 48.5775 55.0353 48.5775L21.2236 48.5776Z" stroke="#B3D9EF" stroke-width="0.5"/>
<path d="M21.2223 56.1863C20.133 56.1863 19.25 55.3033 19.25 54.214C19.25 53.1247 20.133 52.2416 21.2223 52.2416L55.0341 52.2415C56.1234 52.2415 57.0064 53.1246 57.0064 54.2139C57.0064 55.3032 56.1234 56.1862 55.0341 56.1862L21.2223 56.1863Z" stroke="#B3D9EF" stroke-width="0.5"/>
<path d="M21.2242 63.2302C20.1349 63.2302 19.2518 62.3471 19.2518 61.2578C19.2518 60.1685 20.1349 59.2854 21.2242 59.2854L55.0359 59.2853C56.1252 59.2853 57.0083 60.1684 57.0083 61.2577C57.0083 62.347 56.1252 63.23 55.0359 63.2301L21.2242 63.2302Z" stroke="#B3D9EF" stroke-width="0.5"/>
<g filter="url(#filter1_i_235_4591)">
<path d="M24.4063 33.0827C24.4063 33.3156 24.3372 33.5432 24.2078 33.7369C24.0785 33.9305 23.8946 34.0814 23.6794 34.1705C23.4643 34.2596 23.2276 34.2829 22.9992 34.2375C22.7708 34.1921 22.561 34.0799 22.3963 33.9153C22.2317 33.7506 22.1195 33.5408 22.0741 33.3124C22.0287 33.084 22.052 32.8473 22.1411 32.6322C22.2302 32.417 22.3811 32.2331 22.5747 32.1038C22.7684 31.9744 22.996 31.9053 23.2289 31.9053C23.5411 31.9053 23.8406 32.0294 24.0614 32.2502C24.2822 32.471 24.4063 32.7705 24.4063 33.0827ZM27.546 29.5506L27.546 38.1848C27.546 38.393 27.4633 38.5926 27.3161 38.7398C27.1689 38.887 26.9692 38.9697 26.761 38.9697H19.6967C19.4885 38.9697 19.2888 38.887 19.1416 38.7398C18.9944 38.5926 18.9117 38.393 18.9117 38.1848L18.9117 37.0074H18.1268C18.0227 37.0074 17.9229 36.966 17.8493 36.8924C17.7757 36.8188 17.7343 36.719 17.7343 36.6149C17.7343 36.5108 17.7757 36.411 17.8493 36.3374C17.9229 36.2638 18.0227 36.2225 18.1268 36.2225H18.9117L18.9118 34.2601H18.1268C18.0227 34.2601 17.9229 34.2188 17.8493 34.1452C17.7757 34.0716 17.7344 33.9718 17.7344 33.8677C17.7344 33.7636 17.7757 33.6638 17.8493 33.5902C17.9229 33.5166 18.0227 33.4752 18.1268 33.4752H18.9118L18.9118 31.5129H18.1268C18.0227 31.5129 17.9229 31.4715 17.8493 31.3979C17.7757 31.3243 17.7344 31.2245 17.7344 31.1204C17.7344 31.0163 17.7757 30.9165 17.8493 30.8429C17.9229 30.7693 18.0227 30.728 18.1268 30.728H18.9118L18.9118 29.5506C18.9118 29.3424 18.9945 29.1427 19.1417 28.9955C19.2889 28.8483 19.4885 28.7656 19.6967 28.7656H26.7611C26.9692 28.7656 27.1689 28.8483 27.3161 28.9955C27.4633 29.1427 27.546 29.3424 27.546 29.5506ZM25.8976 35.5945C25.5501 35.1286 25.0867 34.7617 24.5534 34.5304C24.8457 34.2636 25.0504 33.9147 25.1408 33.5295C25.2312 33.1442 25.203 32.7406 25.0599 32.3717C24.9168 32.0028 24.6655 31.6857 24.339 31.4621C24.0125 31.2386 23.6261 31.1189 23.2303 31.1189C22.8346 31.1189 22.4482 31.2386 22.1217 31.4621C21.7952 31.6857 21.5439 32.0028 21.4008 32.3717C21.2577 32.7406 21.2295 33.1442 21.3199 33.5295C21.4103 33.9147 21.615 34.2636 21.9072 34.5304C21.3729 34.7613 20.9084 35.1282 20.5601 35.5945C20.5292 35.6357 20.5067 35.6827 20.4939 35.7326C20.4811 35.7825 20.4783 35.8345 20.4856 35.8855C20.4928 35.9365 20.5101 35.9856 20.5364 36.03C20.5626 36.0743 20.5974 36.113 20.6386 36.144C20.6798 36.1749 20.7267 36.1974 20.7767 36.2102C20.8266 36.223 20.8786 36.2258 20.9296 36.2185C20.9806 36.2112 21.0297 36.194 21.074 36.1677C21.1184 36.1414 21.1571 36.1067 21.188 36.0655C21.4257 35.7486 21.7338 35.4915 22.088 35.3144C22.4422 35.1373 22.8328 35.0451 23.2289 35.0451C23.6249 35.0451 24.0155 35.1373 24.3697 35.3144C24.7239 35.4915 25.0321 35.7486 25.2697 36.0655C25.3321 36.1487 25.4251 36.2038 25.5281 36.2185C25.6312 36.2332 25.7359 36.2064 25.8191 36.144C25.9024 36.0815 25.9575 35.9885 25.9722 35.8855C25.9869 35.7825 25.9601 35.6778 25.8976 35.5945Z" fill="#40A0D8"/>
</g>
<g filter="url(#filter2_d_235_4591)">
<path d="M39.6376 96.709C38.0935 96.709 36.8371 95.4663 36.8201 93.9223L36.9001 36.7159C36.8829 35.1477 38.1494 33.8672 39.7176 33.8672L81.903 33.8672C83.4484 33.8672 84.7055 35.1121 84.7205 36.6575L84.7401 93.8639C84.7553 95.4307 83.4894 96.709 81.9226 96.709L39.6376 96.709Z" fill="url(#paint1_linear_235_4591)"/>
</g>
<g filter="url(#filter3_i_235_4591)">
<path d="M71.9703 45.6322C70.881 45.6322 69.9979 44.7492 69.9979 43.6599C69.9979 42.5706 70.881 41.6875 71.9703 41.6875L77.6056 41.6875C78.6949 41.6875 79.578 42.5706 79.578 43.6599C79.578 44.7492 78.6949 45.6322 77.6056 45.6322L71.9703 45.6322Z" fill="#F6E4F0"/>
<path d="M71.9703 51.8311C70.8809 51.8311 69.9979 50.948 69.9979 49.8587C69.9979 48.7694 70.881 47.8864 71.9703 47.8864H77.6056C78.6949 47.8864 79.578 48.7694 79.578 49.8587C79.578 50.948 78.6949 51.8311 77.6056 51.8311L71.9703 51.8311Z" fill="#F6E4F0"/>
<path d="M43.7938 69.3006C42.7045 69.3006 41.8215 68.4176 41.8215 67.3283C41.8215 66.239 42.7045 65.3559 43.7938 65.3559L77.6056 65.3558C78.6949 65.3558 79.5779 66.2388 79.5779 67.3282C79.5779 68.4175 78.6949 69.3005 77.6056 69.3005L43.7938 69.3006Z" fill="#F6E4F0"/>
<path d="M43.7926 76.9093C42.7033 76.9093 41.8202 76.0263 41.8202 74.937C41.8202 73.8477 42.7033 72.9646 43.7926 72.9646L77.6043 72.9645C78.6936 72.9645 79.5767 73.8475 79.5767 74.9368C79.5767 76.0261 78.6936 76.9092 77.6043 76.9092L43.7926 76.9093Z" fill="#F6E4F0"/>
<path d="M43.7944 83.9532C42.7051 83.9532 41.8221 83.0701 41.8221 81.9808C41.8221 80.8915 42.7051 80.0084 43.7944 80.0084L77.6062 80.0083C78.6955 80.0083 79.5785 80.8914 79.5785 81.9807C79.5785 83.07 78.6955 83.953 77.6062 83.953L43.7944 83.9532Z" fill="#F6E4F0"/>
</g>
<path d="M71.9703 45.6322C70.881 45.6322 69.9979 44.7492 69.9979 43.6599C69.9979 42.5706 70.881 41.6875 71.9703 41.6875L77.6056 41.6875C78.6949 41.6875 79.578 42.5706 79.578 43.6599C79.578 44.7492 78.6949 45.6322 77.6056 45.6322L71.9703 45.6322Z" stroke="#F7C9E3" stroke-opacity="0.5" stroke-width="0.563533"/>
<path d="M71.9703 51.8311C70.8809 51.8311 69.9979 50.948 69.9979 49.8587C69.9979 48.7694 70.881 47.8864 71.9703 47.8864H77.6056C78.6949 47.8864 79.578 48.7694 79.578 49.8587C79.578 50.948 78.6949 51.8311 77.6056 51.8311L71.9703 51.8311Z" stroke="#F7C9E3" stroke-opacity="0.5" stroke-width="0.563533"/>
<path d="M43.7938 69.3006C42.7045 69.3006 41.8215 68.4176 41.8215 67.3283C41.8215 66.239 42.7045 65.3559 43.7938 65.3559L77.6056 65.3558C78.6949 65.3558 79.5779 66.2388 79.5779 67.3282C79.5779 68.4175 78.6949 69.3005 77.6056 69.3005L43.7938 69.3006Z" stroke="#F7C9E3" stroke-opacity="0.5" stroke-width="0.563533"/>
<path d="M43.7926 76.9093C42.7033 76.9093 41.8202 76.0263 41.8202 74.937C41.8202 73.8477 42.7033 72.9646 43.7926 72.9646L77.6043 72.9645C78.6936 72.9645 79.5767 73.8475 79.5767 74.9368C79.5767 76.0261 78.6936 76.9092 77.6043 76.9092L43.7926 76.9093Z" stroke="#F7C9E3" stroke-opacity="0.5" stroke-width="0.563533"/>
<path d="M43.7944 83.9532C42.7051 83.9532 41.8221 83.0701 41.8221 81.9808C41.8221 80.8915 42.7051 80.0084 43.7944 80.0084L77.6062 80.0083C78.6955 80.0083 79.5785 80.8914 79.5785 81.9807C79.5785 83.07 78.6955 83.953 77.6062 83.953L43.7944 83.9532Z" stroke="#F7C9E3" stroke-opacity="0.5" stroke-width="0.563533"/>
<g filter="url(#filter4_i_235_4591)">
<g clip-path="url(#clip1_235_4591)">
<rect x="40.8203" y="39" width="17" height="17" rx="8.5" fill="#FEF3EF"/>
<g clip-path="url(#clip2_235_4591)">
<g filter="url(#filter5_i_235_4591)">
<path d="M56.8203 55.0003C56.8203 55.1329 56.7676 55.2601 56.6739 55.3539C56.5801 55.4476 56.4529 55.5003 56.3203 55.5003H42.3203C42.1877 55.5003 42.0605 55.4476 41.9668 55.3539C41.873 55.2601 41.8203 55.1329 41.8203 55.0003C41.8203 54.8677 41.873 54.7405 41.9668 54.6468C42.0605 54.553 42.1877 54.5003 42.3203 54.5003H56.3203C56.4529 54.5003 56.5801 54.553 56.6739 54.6468C56.7676 54.7405 56.8203 54.8677 56.8203 55.0003ZM42.3391 48.1366C42.3093 48.0317 42.3147 47.92 42.3543 47.8185C42.3939 47.7169 42.4656 47.6311 42.5584 47.5741L49.0584 43.5741C49.1372 43.5256 49.2279 43.5 49.3203 43.5C49.4128 43.5 49.5034 43.5256 49.5822 43.5741L56.0822 47.5741C56.1751 47.631 56.2468 47.7168 56.2865 47.8183C56.3262 47.9198 56.3316 48.0315 56.302 48.1363C56.2723 48.2412 56.2092 48.3335 56.1223 48.3992C56.0353 48.4649 55.9293 48.5004 55.8203 48.5003H54.3203V52.5003H55.3203C55.4529 52.5003 55.5801 52.553 55.6739 52.6468C55.7676 52.7405 55.8203 52.8677 55.8203 53.0003C55.8203 53.1329 55.7676 53.2601 55.6739 53.3539C55.5801 53.4476 55.4529 53.5003 55.3203 53.5003H43.3203C43.1877 53.5003 43.0605 53.4476 42.9668 53.3539C42.873 53.2601 42.8203 53.1329 42.8203 53.0003C42.8203 52.8677 42.873 52.7405 42.9668 52.6468C43.0605 52.553 43.1877 52.5003 43.3203 52.5003H44.3203V48.5003H42.8203C42.7114 48.5004 42.6055 48.4648 42.5187 48.3992C42.4318 48.3335 42.3687 48.2413 42.3391 48.1366ZM50.3203 52.0003C50.3203 52.1329 50.373 52.2601 50.4668 52.3539C50.5605 52.4476 50.6877 52.5003 50.8203 52.5003C50.9529 52.5003 51.0801 52.4476 51.1739 52.3539C51.2676 52.2601 51.3203 52.1329 51.3203 52.0003V49.0003C51.3203 48.8677 51.2676 48.7405 51.1739 48.6468C51.0801 48.553 50.9529 48.5003 50.8203 48.5003C50.6877 48.5003 50.5605 48.553 50.4668 48.6468C50.373 48.7405 50.3203 48.8677 50.3203 49.0003V52.0003ZM47.3203 52.0003C47.3203 52.1329 47.373 52.2601 47.4668 52.3539C47.5605 52.4476 47.6877 52.5003 47.8203 52.5003C47.9529 52.5003 48.0801 52.4476 48.1739 52.3539C48.2676 52.2601 48.3203 52.1329 48.3203 52.0003V49.0003C48.3203 48.8677 48.2676 48.7405 48.1739 48.6468C48.0801 48.553 47.9529 48.5003 47.8203 48.5003C47.6877 48.5003 47.5605 48.553 47.4668 48.6468C47.373 48.7405 47.3203 48.8677 47.3203 49.0003V52.0003Z" fill="#FE7122"/>
</g>
</g>
</g>
</g>
<g filter="url(#filter6_i_235_4591)">
<path d="M6.96609 65.2734C5.35317 65.2734 4.06941 66.6248 4.15214 68.2356L6.63664 116.61C6.71358 118.108 7.95061 119.283 9.4506 119.283H89.559C91.0754 119.283 92.3198 118.083 92.3748 116.568L94.1286 68.1932C94.1864 66.5981 92.9089 65.2734 91.3127 65.2734H89.2719H15.2589H10.8532H6.96609Z" fill="#5A7CE3"/>
</g>
</g>
<defs>
<filter id="filter0_i_235_4591" x="19" y="44.3828" width="38.2578" height="19.5938" filterUnits="userSpaceOnUse" color-interpolation-filters="sRGB">
<feFlood flood-opacity="0" result="BackgroundImageFix"/>
<feBlend mode="normal" in="SourceGraphic" in2="BackgroundImageFix" result="shape"/>
<feColorMatrix in="SourceAlpha" type="matrix" values="0 0 0 0 0 0 0 0 0 0 0 0 0 0 0 0 0 0 127 0" result="hardAlpha"/>
<feOffset dy="1"/>
<feGaussianBlur stdDeviation="0.25"/>
<feComposite in2="hardAlpha" operator="arithmetic" k2="-1" k3="1"/>
<feColorMatrix type="matrix" values="0 0 0 0 0.841667 0 0 0 0 0.941666 0 0 0 0 1 0 0 0 0.5 0"/>
<feBlend mode="normal" in2="shape" result="effect1_innerShadow_235_4591"/>
</filter>
<filter id="filter1_i_235_4591" x="17.7344" y="28.7656" width="9.8125" height="10.7031" filterUnits="userSpaceOnUse" color-interpolation-filters="sRGB">
<feFlood flood-opacity="0" result="BackgroundImageFix"/>
<feBlend mode="normal" in="SourceGraphic" in2="BackgroundImageFix" result="shape"/>
<feColorMatrix in="SourceAlpha" type="matrix" values="0 0 0 0 0 0 0 0 0 0 0 0 0 0 0 0 0 0 127 0" result="hardAlpha"/>
<feOffset dy="0.5"/>
<feGaussianBlur stdDeviation="0.25"/>
<feComposite in2="hardAlpha" operator="arithmetic" k2="-1" k3="1"/>
<feColorMatrix type="matrix" values="0 0 0 0 0.841667 0 0 0 0 0.941666 0 0 0 0 1 0 0 0 0.5 0"/>
<feBlend mode="normal" in2="shape" result="effect1_innerShadow_235_4591"/>
</filter>
<filter id="filter2_d_235_4591" x="34.5662" y="31.6131" width="52.4301" height="67.352" filterUnits="userSpaceOnUse" color-interpolation-filters="sRGB">
<feFlood flood-opacity="0" result="BackgroundImageFix"/>
<feColorMatrix in="SourceAlpha" type="matrix" values="0 0 0 0 0 0 0 0 0 0 0 0 0 0 0 0 0 0 127 0" result="hardAlpha"/>
<feOffset/>
<feGaussianBlur stdDeviation="1.12707"/>
<feComposite in2="hardAlpha" operator="out"/>
<feColorMatrix type="matrix" values="0 0 0 0 0.107608 0 0 0 0 0.32053 0 0 0 0 0.959294 0 0 0 0.2 0"/>
<feBlend mode="normal" in2="BackgroundImageFix" result="effect1_dropShadow_235_4591"/>
<feBlend mode="normal" in="SourceGraphic" in2="effect1_dropShadow_235_4591" result="shape"/>
</filter>
<filter id="filter3_i_235_4591" x="41.5391" y="41.4062" width="38.3203" height="43.3281" filterUnits="userSpaceOnUse" color-interpolation-filters="sRGB">
<feFlood flood-opacity="0" result="BackgroundImageFix"/>
<feBlend mode="normal" in="SourceGraphic" in2="BackgroundImageFix" result="shape"/>
<feColorMatrix in="SourceAlpha" type="matrix" values="0 0 0 0 0 0 0 0 0 0 0 0 0 0 0 0 0 0 127 0" result="hardAlpha"/>
<feOffset dy="1"/>
<feGaussianBlur stdDeviation="0.25"/>
<feComposite in2="hardAlpha" operator="arithmetic" k2="-1" k3="1"/>
<feColorMatrix type="matrix" values="0 0 0 0 0.841667 0 0 0 0 0.941666 0 0 0 0 1 0 0 0 0.5 0"/>
<feBlend mode="normal" in2="shape" result="effect1_innerShadow_235_4591"/>
</filter>
<filter id="filter4_i_235_4591" x="40.8203" y="39" width="17" height="17.5" filterUnits="userSpaceOnUse" color-interpolation-filters="sRGB">
<feFlood flood-opacity="0" result="BackgroundImageFix"/>
<feBlend mode="normal" in="SourceGraphic" in2="BackgroundImageFix" result="shape"/>
<feColorMatrix in="SourceAlpha" type="matrix" values="0 0 0 0 0 0 0 0 0 0 0 0 0 0 0 0 0 0 127 0" result="hardAlpha"/>
<feOffset dy="1"/>
<feGaussianBlur stdDeviation="0.25"/>
<feComposite in2="hardAlpha" operator="arithmetic" k2="-1" k3="1"/>
<feColorMatrix type="matrix" values="0 0 0 0 1 0 0 0 0 0.924306 0 0 0 0 0.891667 0 0 0 1 0"/>
<feBlend mode="normal" in2="shape" result="effect1_innerShadow_235_4591"/>
</filter>
<filter id="filter5_i_235_4591" x="41.8203" y="43.5" width="15" height="12.5333" filterUnits="userSpaceOnUse" color-interpolation-filters="sRGB">
<feFlood flood-opacity="0" result="BackgroundImageFix"/>
<feBlend mode="normal" in="SourceGraphic" in2="BackgroundImageFix" result="shape"/>
<feColorMatrix in="SourceAlpha" type="matrix" values="0 0 0 0 0 0 0 0 0 0 0 0 0 0 0 0 0 0 127 0" result="hardAlpha"/>
<feOffset dy="1.06667"/>
<feGaussianBlur stdDeviation="0.266667"/>
<feComposite in2="hardAlpha" operator="arithmetic" k2="-1" k3="1"/>
<feColorMatrix type="matrix" values="0 0 0 0 1 0 0 0 0 0.970887 0 0 0 0 0.958333 0 0 0 0.3 0"/>
<feBlend mode="normal" in2="shape" result="effect1_innerShadow_235_4591"/>
</filter>
<filter id="filter6_i_235_4591" x="4.14844" y="65.2734" width="89.9844" height="58.0078" filterUnits="userSpaceOnUse" color-interpolation-filters="sRGB">
<feFlood flood-opacity="0" result="BackgroundImageFix"/>
<feBlend mode="normal" in="SourceGraphic" in2="BackgroundImageFix" result="shape"/>
<feColorMatrix in="SourceAlpha" type="matrix" values="0 0 0 0 0 0 0 0 0 0 0 0 0 0 0 0 0 0 127 0" result="hardAlpha"/>
<feOffset dy="4"/>
<feGaussianBlur stdDeviation="2"/>
<feComposite in2="hardAlpha" operator="arithmetic" k2="-1" k3="1"/>
<feColorMatrix type="matrix" values="0 0 0 0 0.592157 0 0 0 0 0.278431 0 0 0 0 1 0 0 0 0.24 0"/>
<feBlend mode="normal" in2="shape" result="effect1_innerShadow_235_4591"/>
</filter>
<linearGradient id="paint0_linear_235_4591" x1="37.827" y1="35" x2="37.8273" y2="119" gradientUnits="userSpaceOnUse">
<stop stop-color="white"/>
<stop offset="1" stop-color="#B6DBF1"/>
</linearGradient>
<linearGradient id="paint1_linear_235_4591" x1="60.7804" y1="49.499" x2="60.7807" y2="147.999" gradientUnits="userSpaceOnUse">
<stop stop-color="white"/>
<stop offset="1" stop-color="#FFDBB9"/>
</linearGradient>
<clipPath id="clip0_235_4591">
<rect width="98" height="98" rx="49" fill="white"/>
</clipPath>
<clipPath id="clip1_235_4591">
<rect x="40.8203" y="39" width="17" height="17" rx="8.5" fill="white"/>
</clipPath>
<clipPath id="clip2_235_4591">
<rect width="16" height="16" fill="white" transform="translate(41.3203 42)"/>
</clipPath>
</defs>
</svg>
