<svg width="24" height="24" viewBox="0 0 24 24" fill="none" xmlns="http://www.w3.org/2000/svg">
<g clip-path="url(#clip0_1185_6970)">
<path d="M12.4316 7.57597C11.9501 8.66178 8.46565 8.07997 7.23405 7.49769C6.00246 6.91587 5.39473 5.5639 5.87571 4.47809C6.13259 3.89876 6.64784 3.51219 7.25951 3.36636C7.79435 3.23815 8.40302 3.29445 8.97701 3.566C9.92824 4.01567 11.7573 5.51445 12.3195 6.67414C12.4854 7.01619 12.5411 7.32889 12.4316 7.57597Z" fill="#FFCD00"/>
<path d="M17.2543 7.49763C16.5013 7.85383 14.9061 8.20957 13.6701 8.18416C12.8847 8.16803 12.2442 7.99774 12.0568 7.57596C11.5753 6.49014 14.2797 4.1478 15.5109 3.56599C16.7424 2.98371 18.1312 3.39227 18.6126 4.47808C18.616 4.48544 18.619 4.49275 18.6219 4.50011C19.0854 5.58194 18.4772 6.91975 17.2543 7.49763Z" fill="#FFCD00"/>
<path d="M17.2483 7.49951C16.4953 7.85571 14.9001 8.21144 13.6641 8.18604C13.9841 7.00043 16.0891 5.23938 17.1338 4.74565C17.6256 4.51324 18.1423 4.43885 18.6159 4.50194C19.0793 5.58382 18.4711 6.92163 17.2483 7.49951Z" fill="#FFDA44"/>
<path d="M12.3173 6.67414C11.0827 6.69814 9.49294 6.34287 8.74181 5.98812C7.65698 5.47531 7.05609 4.36555 7.25723 3.36636C7.79208 3.23815 8.40075 3.29445 8.97473 3.566C9.92597 4.01572 11.755 5.5145 12.3173 6.67414Z" fill="#FFDA44"/>
<path d="M14.1232 3.13759C14.1232 4.06291 13.697 5.92717 13.0634 7.05606C12.7512 7.61144 12.3891 7.98869 12.003 7.98869C10.8321 7.98869 9.88281 4.51844 9.88281 3.13759C9.88281 1.75623 10.8321 0.636719 12.003 0.636719C12.3891 0.636719 12.7512 0.758547 13.0634 0.971406C13.697 1.40397 14.1232 2.21181 14.1232 3.13759Z" fill="#EEBF00"/>
<path d="M14.1202 3.13884C14.1202 4.06416 13.694 5.92842 13.0604 7.05731C12.4262 5.92847 12 4.06416 12 3.13884C12 2.21306 12.4267 1.4047 13.0604 0.972656C13.694 1.40522 14.1202 2.21306 14.1202 3.13884Z" fill="#FFD422"/>
<path d="M22.5857 11.0469V21.1606C22.5857 22.378 21.5993 23.365 20.3819 23.365H3.62575C2.40831 23.365 1.42188 22.378 1.42188 21.1606V11.0469H22.5857Z" fill="#7C84E8"/>
<path d="M22.5792 11.0469V21.1606C22.5792 22.378 21.5927 23.365 20.3753 23.365H6.03981C4.82238 23.365 3.83594 22.378 3.83594 21.1606V11.0469H22.5792Z" fill="#999FED"/>
<path d="M24 8.80719V11.6437C24 12.3004 23.4627 12.8377 22.806 12.8377H1.19395C0.537281 12.8377 0 12.3005 0 11.6438V8.80723C0 8.15056 0.537281 7.61328 1.19395 7.61328H22.8061C23.4627 7.61328 24 8.15052 24 8.80719Z" fill="#515BE0"/>
<path d="M24.0005 8.80723V10.601H3.75645C3.09978 10.601 2.5625 10.0638 2.5625 9.40709V7.61328H22.8065C23.4632 7.61333 24.0005 8.15056 24.0005 8.80723Z" fill="#6E76E5"/>
<path d="M5.67794 17.9195C4.60291 17.4615 3.36737 18.217 2.56933 19.0772C1.9787 19.7148 1.6083 20.4023 1.42188 21.0736V21.1593C1.42188 21.7734 1.67289 22.3288 2.07803 22.7281C1.99094 22.341 1.99042 21.9173 2.07067 21.5106L5.58447 23.0089C5.49686 23.1341 5.40002 23.2531 5.2953 23.3636H6.22891C7.36169 21.6349 7.31177 18.6168 5.67794 17.9195ZM5.3897 18.5948C5.88391 18.8052 6.20978 19.4971 6.26312 20.3877L3.49309 19.2069C3.99859 18.7768 4.78886 18.3384 5.3897 18.5948ZM5.94067 22.363L2.29084 20.8065C2.443 20.4571 2.65736 20.1077 2.93969 19.7686L6.24011 21.1759C6.19417 21.586 6.09677 21.9897 5.94067 22.363Z" fill="#515BE0"/>
<path d="M8.62576 13.5563C5.83224 12.7235 4.47685 14.6984 5.89927 17.3147C7.30459 19.8944 10.0756 20.2913 11.3062 18.9114C11.6972 18.4725 11.8885 17.9098 11.8885 17.3103C11.8885 15.8595 10.7665 14.1949 8.62576 13.5563ZM7.17638 14.1166C7.18126 14.1175 8.4437 13.9468 9.81868 14.9528C9.57648 15.4054 9.10332 15.6961 8.57532 15.6961C7.73129 15.6961 7.0756 14.9562 7.17638 14.1166ZM7.77287 18.3898C8.0004 17.899 8.49704 17.5726 9.05241 17.5726C9.72671 17.5726 10.2992 18.0521 10.4323 18.6956C9.63568 19.1918 8.5352 18.93 7.77287 18.3898ZM10.9911 18.0698C10.6466 17.3407 9.90287 16.8386 9.05246 16.8386C8.28226 16.8386 7.58551 17.2521 7.20676 17.8916C6.26091 16.8724 5.63509 15.0776 6.4351 14.3989C6.49384 15.5287 7.43134 16.43 8.57537 16.43C9.31716 16.43 9.98752 16.0528 10.3756 15.4519C11.1849 16.3479 11.3131 17.393 10.9911 18.0698Z" fill="#515BE0"/>
<path d="M17.2396 19.5639C17.2215 18.392 16.809 17.0073 15.7041 16.6285C13.9132 16.0149 11.7328 18.5476 11.6154 20.6468C11.5503 21.8094 12.0166 22.8414 12.8079 23.3659H15.344C16.4273 22.744 17.2851 21.3724 17.2396 19.5639ZM13.5492 22.9182C12.7711 22.6515 12.2887 21.7551 12.3479 20.6879C12.4536 18.8035 14.3634 16.9451 15.4659 17.3228C16.2351 17.5866 16.4831 18.7649 16.5061 19.5845C16.5379 22.0051 14.8175 23.3527 13.5492 22.9182Z" fill="#515BE0"/>
<path d="M21.2622 14.3229C21.6037 14.5813 19.5589 12.6857 18.0503 13.5532C17.2234 14.0293 16.9797 15.1264 17.0296 16.0884C17.0707 16.8761 17.3482 17.7741 17.4881 17.9419C17.9378 18.9421 18.5348 19.4867 19.0672 19.8072C20.5943 20.7227 21.957 20.1864 22.5878 19.057V15.989C22.3152 15.4146 21.8832 14.8445 21.2622 14.3229ZM19.2844 14.0924L17.8027 15.2751C17.951 14.4061 18.4124 13.9182 19.2844 14.0924ZM17.7797 16.2327L20.0815 14.3953C20.3159 14.5225 20.5414 14.6781 20.7543 14.8547L17.9549 17.0895C17.8664 16.7998 17.8081 16.5092 17.7797 16.2327ZM18.2387 17.8019L21.2857 15.3695C21.3899 15.4869 21.4839 15.6063 21.5695 15.7267L18.4682 18.2022C18.384 18.0735 18.3077 17.9394 18.2387 17.8019ZM20.4211 19.518L22.1645 18.1269C21.9801 18.9827 21.339 19.61 20.4211 19.518ZM19.5775 19.2523C19.3553 19.1349 19.1425 18.9832 18.9296 18.7727L21.9399 16.3702C22.0363 16.585 22.1307 16.8913 22.1767 17.1781L19.5775 19.2523Z" fill="#515BE0"/>
<path d="M15.011 18.9401C15.2588 18.9401 15.4596 18.7392 15.4596 18.4915C15.4596 18.2438 15.2588 18.043 15.011 18.043C14.7633 18.043 14.5625 18.2438 14.5625 18.4915C14.5625 18.7392 14.7633 18.9401 15.011 18.9401Z" fill="#515BE0"/>
<path d="M15.9954 20.1353C16.1913 20.1353 16.3501 19.9765 16.3501 19.7805C16.3501 19.5846 16.1913 19.4258 15.9954 19.4258C15.7995 19.4258 15.6406 19.5846 15.6406 19.7805C15.6406 19.9765 15.7995 20.1353 15.9954 20.1353Z" fill="#515BE0"/>
<path d="M15.1478 21.9245C15.471 21.9245 15.7331 21.6624 15.7331 21.3392C15.7331 21.0159 15.471 20.7539 15.1478 20.7539C14.8245 20.7539 14.5625 21.0159 14.5625 21.3392C14.5625 21.6624 14.8245 21.9245 15.1478 21.9245Z" fill="#515BE0"/>
<path d="M13.834 7.61328H10.1641V23.3639H13.834V7.61328Z" fill="#FFCD00"/>
<path d="M13.834 7.61328H10.1641V12.8377H13.834V7.61328Z" fill="#DDB200"/>
</g>
<defs>
<clipPath id="clip0_1185_6970">
<rect width="24" height="24" fill="white"/>
</clipPath>
</defs>
</svg>
