<svg width="32" height="32" viewBox="0 0 32 32" fill="none" xmlns="http://www.w3.org/2000/svg">
<path d="M13.943 1.02698C13.39 1.02898 12.945 1.47798 12.947 2.03098C12.947 3.70898 12.364 4.69298 11.611 5.95098C11.199 6.63898 10.539 7.77798 10.257 8.65198C9.96099 8.05598 9.79099 7.61498 9.52799 6.65998C9.31499 5.86698 8.28799 5.65498 7.77799 6.29898C4.02599 10.972 2.92399 14.476 3.00299 18.02C3.16099 25.159 8.83499 30.999 16.003 30.999C23.171 30.999 29.001 25.167 29.001 17.999C29.001 16.158 28.575 13.767 27.694 11.519C26.813 9.27098 25.485 7.13598 23.45 6.04798C22.876 5.74298 22.167 6.05898 22.011 6.69098C21.815 7.49398 21.743 7.74098 21.509 8.42098C21.222 7.11898 20.762 5.87098 20.011 4.66698C18.752 2.64498 16.676 1.02698 13.943 1.02698ZM12.66 14.248C13.488 14.248 14.16 14.92 14.16 15.748C14.16 16.576 13.488 17.248 12.66 17.248C11.832 17.248 11.16 16.576 11.16 15.748C11.16 14.92 11.832 14.248 12.66 14.248ZM19.756 14.258C20.019 14.229 20.293 14.296 20.498 14.5C20.912 14.863 20.955 15.492 20.594 15.908L12.91 24.656C12.547 25.072 11.916 25.114 11.5 24.752C11.083 24.386 11.043 23.75 11.412 23.336L19.088 14.588C19.242 14.412 19.493 14.287 19.756 14.258ZM19.34 21.998C20.168 21.998 20.84 22.67 20.84 23.498C20.84 24.326 20.168 24.998 19.34 24.998C18.512 24.998 17.84 24.326 17.84 23.498C17.84 22.67 18.511 21.998 19.34 21.998Z" fill="url(#paint0_linear_2_18660)"/>
<defs>
<linearGradient id="paint0_linear_2_18660" x1="16" y1="1.02698" x2="16" y2="30.999" gradientUnits="userSpaceOnUse">
<stop stop-color="#FBBC04"/>
<stop offset="1" stop-color="#EA4335"/>
</linearGradient>
</defs>
</svg>
