<svg width="193" height="64" viewBox="0 0 193 64" fill="none" xmlns="http://www.w3.org/2000/svg">
<rect x="1" y="0.5" width="191" height="63" rx="11.5" fill="white"/>
<rect x="1" y="0.5" width="191" height="63" rx="11.5" stroke="#A6A6A6"/>
<path d="M33.5454 32.8904C33.56 31.8172 33.8603 30.7649 34.4185 29.8314C34.9766 28.898 35.7745 28.1137 36.7378 27.5516C36.1258 26.722 35.3185 26.0393 34.3799 25.5577C33.4414 25.0761 32.3975 24.8089 31.3311 24.7772C29.0563 24.5506 26.8509 26.0692 25.6917 26.0692C24.5101 26.0692 22.7253 24.7997 20.8034 24.8372C19.5603 24.8754 18.3487 25.2185 17.2868 25.8332C16.2249 26.4479 15.3489 27.3132 14.7441 28.3448C12.1242 32.6502 14.0784 38.9778 16.5881 42.4581C17.8437 44.1622 19.3112 46.0658 21.2314 45.9983C23.1104 45.9243 23.8121 44.861 26.0802 44.861C28.3273 44.861 28.9857 45.9983 30.9448 45.9554C32.9611 45.9243 34.2314 44.2437 35.443 42.5234C36.3452 41.3091 37.0394 39.9671 37.5 38.547C36.3286 38.0767 35.329 37.2895 34.6257 36.2836C33.9225 35.2777 33.5468 34.0976 33.5454 32.8904Z" fill="black"/>
<path d="M29.8449 22.4883C30.9443 21.2357 31.4859 19.6256 31.3548 18C29.6752 18.1674 28.1238 18.9294 27.0096 20.134C26.4648 20.7224 26.0476 21.4071 25.7817 22.1487C25.5159 22.8903 25.4066 23.6744 25.4602 24.4561C26.3003 24.4643 27.1314 24.2915 27.8909 23.9506C28.6504 23.6098 29.3185 23.1098 29.8449 22.4883Z" fill="black"/>
<path d="M52.9375 27H50.4688V19H53.0469C53.8229 19 54.487 19.1602 55.0391 19.4805C55.5911 19.7982 56.0143 20.2552 56.3086 20.8516C56.6029 21.4453 56.75 22.1562 56.75 22.9844C56.75 23.8177 56.6016 24.5352 56.3047 25.1367C56.0078 25.7357 55.5755 26.1966 55.0078 26.5195C54.4401 26.8398 53.75 27 52.9375 27ZM51.4375 26.1406H52.875C53.5365 26.1406 54.0846 26.013 54.5195 25.7578C54.9544 25.5026 55.2786 25.1393 55.4922 24.668C55.7057 24.1966 55.8125 23.6354 55.8125 22.9844C55.8125 22.3385 55.707 21.7826 55.4961 21.3164C55.2852 20.8477 54.9701 20.4883 54.5508 20.2383C54.1315 19.9857 53.6094 19.8594 52.9844 19.8594H51.4375V26.1406ZM65.125 23C65.125 23.8437 64.9727 24.5729 64.668 25.1875C64.3633 25.8021 63.9453 26.276 63.4141 26.6094C62.8828 26.9427 62.276 27.1094 61.5938 27.1094C60.9115 27.1094 60.3047 26.9427 59.7734 26.6094C59.2422 26.276 58.8242 25.8021 58.5195 25.1875C58.2148 24.5729 58.0625 23.8437 58.0625 23C58.0625 22.1562 58.2148 21.4271 58.5195 20.8125C58.8242 20.1979 59.2422 19.724 59.7734 19.3906C60.3047 19.0573 60.9115 18.8906 61.5938 18.8906C62.276 18.8906 62.8828 19.0573 63.4141 19.3906C63.9453 19.724 64.3633 20.1979 64.668 20.8125C64.9727 21.4271 65.125 22.1562 65.125 23ZM64.1875 23C64.1875 22.3073 64.0716 21.7227 63.8398 21.2461C63.6107 20.7695 63.2995 20.4089 62.9062 20.1641C62.5156 19.9193 62.0781 19.7969 61.5938 19.7969C61.1094 19.7969 60.6706 19.9193 60.2773 20.1641C59.8867 20.4089 59.5755 20.7695 59.3438 21.2461C59.1146 21.7227 59 22.3073 59 23C59 23.6927 59.1146 24.2773 59.3438 24.7539C59.5755 25.2305 59.8867 25.5911 60.2773 25.8359C60.6706 26.0807 61.1094 26.2031 61.5938 26.2031C62.0781 26.2031 62.5156 26.0807 62.9062 25.8359C63.2995 25.5911 63.6107 25.2305 63.8398 24.7539C64.0716 24.2773 64.1875 23.6927 64.1875 23ZM68.207 27L66.0195 19H67.0039L68.6758 25.5156H68.7539L70.457 19H71.5508L73.2539 25.5156H73.332L75.0039 19H75.9883L73.8008 27H72.8008L71.0352 20.625H70.9727L69.207 27H68.207ZM83.5391 19V27H82.6016L78.2422 20.7187H78.1641V27H77.1953V19H78.1328L82.5078 25.2969H82.5859V19H83.5391ZM85.4775 27V19H86.4463V26.1406H90.165V27H85.4775ZM98.1035 23C98.1035 23.8437 97.9512 24.5729 97.6465 25.1875C97.3418 25.8021 96.9238 26.276 96.3926 26.6094C95.8613 26.9427 95.2546 27.1094 94.5723 27.1094C93.89 27.1094 93.2832 26.9427 92.752 26.6094C92.2207 26.276 91.8027 25.8021 91.498 25.1875C91.1934 24.5729 91.041 23.8437 91.041 23C91.041 22.1562 91.1934 21.4271 91.498 20.8125C91.8027 20.1979 92.2207 19.724 92.752 19.3906C93.2832 19.0573 93.89 18.8906 94.5723 18.8906C95.2546 18.8906 95.8613 19.0573 96.3926 19.3906C96.9238 19.724 97.3418 20.1979 97.6465 20.8125C97.9512 21.4271 98.1035 22.1562 98.1035 23ZM97.166 23C97.166 22.3073 97.0501 21.7227 96.8184 21.2461C96.5892 20.7695 96.278 20.4089 95.8848 20.1641C95.4941 19.9193 95.0566 19.7969 94.5723 19.7969C94.0879 19.7969 93.6491 19.9193 93.2559 20.1641C92.8652 20.4089 92.554 20.7695 92.3223 21.2461C92.0931 21.7227 91.9785 22.3073 91.9785 23C91.9785 23.6927 92.0931 24.2773 92.3223 24.7539C92.554 25.2305 92.8652 25.5911 93.2559 25.8359C93.6491 26.0807 94.0879 26.2031 94.5723 26.2031C95.0566 26.2031 95.4941 26.0807 95.8848 25.8359C96.278 25.5911 96.5892 25.2305 96.8184 24.7539C97.0501 24.2773 97.166 23.6927 97.166 23ZM99.6846 27H98.6689L101.606 19H102.606L105.544 27H104.528L102.138 20.2656H102.075L99.6846 27ZM100.06 23.875H104.153V24.7344H100.06V23.875ZM109.259 27H106.79V19H109.368C110.144 19 110.808 19.1602 111.36 19.4805C111.912 19.7982 112.336 20.2552 112.63 20.8516C112.924 21.4453 113.071 22.1562 113.071 22.9844C113.071 23.8177 112.923 24.5352 112.626 25.1367C112.329 25.7357 111.897 26.1966 111.329 26.5195C110.761 26.8398 110.071 27 109.259 27ZM107.759 26.1406H109.196C109.858 26.1406 110.406 26.013 110.841 25.7578C111.276 25.5026 111.6 25.1393 111.813 24.668C112.027 24.1966 112.134 23.6354 112.134 22.9844C112.134 22.3385 112.028 21.7826 111.817 21.3164C111.606 20.8477 111.291 20.4883 110.872 20.2383C110.453 19.9857 109.931 19.8594 109.306 19.8594H107.759V26.1406ZM124.54 23C124.54 23.8437 124.388 24.5729 124.083 25.1875C123.778 25.8021 123.36 26.276 122.829 26.6094C122.298 26.9427 121.691 27.1094 121.009 27.1094C120.326 27.1094 119.72 26.9427 119.188 26.6094C118.657 26.276 118.239 25.8021 117.935 25.1875C117.63 24.5729 117.478 23.8437 117.478 23C117.478 22.1562 117.63 21.4271 117.935 20.8125C118.239 20.1979 118.657 19.724 119.188 19.3906C119.72 19.0573 120.326 18.8906 121.009 18.8906C121.691 18.8906 122.298 19.0573 122.829 19.3906C123.36 19.724 123.778 20.1979 124.083 20.8125C124.388 21.4271 124.54 22.1562 124.54 23ZM123.603 23C123.603 22.3073 123.487 21.7227 123.255 21.2461C123.026 20.7695 122.715 20.4089 122.321 20.1641C121.931 19.9193 121.493 19.7969 121.009 19.7969C120.524 19.7969 120.086 19.9193 119.692 20.1641C119.302 20.4089 118.991 20.7695 118.759 21.2461C118.53 21.7227 118.415 22.3073 118.415 23C118.415 23.6927 118.53 24.2773 118.759 24.7539C118.991 25.2305 119.302 25.5911 119.692 25.8359C120.086 26.0807 120.524 26.2031 121.009 26.2031C121.493 26.2031 121.931 26.0807 122.321 25.8359C122.715 25.5911 123.026 25.2305 123.255 24.7539C123.487 24.2773 123.603 23.6927 123.603 23ZM132.513 19V27H131.575L127.216 20.7187H127.138V27H126.169V19H127.106L131.481 25.2969H131.56V19H132.513Z" fill="black"/>
<path d="M51.7061 46H49.6758L53.8066 34.0029H56.0391L60.1611 46H58.0518L56.9883 42.6777H52.7783L51.7061 46ZM54.9316 36.0771H54.8525L53.2266 41.1484H56.54L54.9316 36.0771ZM65.7644 46.1318C64.5603 46.1318 63.6462 45.5605 63.154 44.708H63.0837V49.085H61.1325V36.71H63.031V38.0723H63.1013C63.6111 37.1846 64.5603 36.5869 65.8083 36.5869C67.8913 36.5869 69.3767 38.1602 69.3767 40.9375V41.7637C69.3767 44.5234 67.9089 46.1318 65.7644 46.1318ZM65.3161 44.5234C66.5554 44.5234 67.3991 43.5303 67.3991 41.6582V41.0078C67.3991 39.2061 66.6081 38.1777 65.281 38.1777C63.9187 38.1777 63.0661 39.2852 63.0661 40.999V41.6582C63.0661 43.416 63.9275 44.5234 65.3161 44.5234ZM75.683 46.1318C74.4789 46.1318 73.5649 45.5605 73.0727 44.708H73.0024V49.085H71.0512V36.71H72.9496V38.0723H73.02C73.5297 37.1846 74.4789 36.5869 75.727 36.5869C77.81 36.5869 79.2954 38.1602 79.2954 40.9375V41.7637C79.2954 44.5234 77.8276 46.1318 75.683 46.1318ZM75.2348 44.5234C76.4741 44.5234 77.3178 43.5303 77.3178 41.6582V41.0078C77.3178 39.2061 76.5268 38.1777 75.1996 38.1777C73.8373 38.1777 72.9848 39.2852 72.9848 40.999V41.6582C72.9848 43.416 73.8461 44.5234 75.2348 44.5234ZM83.3387 42.6689H85.2899C85.3778 43.7061 86.2919 44.5938 87.9882 44.5938C89.5438 44.5938 90.4667 43.8643 90.4667 42.7305C90.4667 41.8164 89.8514 41.3242 88.5682 41.0166L86.5995 40.5244C85.0526 40.1641 83.6639 39.2412 83.6639 37.29C83.6639 34.9961 85.6679 33.7393 87.997 33.7393C90.3261 33.7393 92.2684 34.9961 92.3124 37.2373H90.3964C90.3085 36.2178 89.5262 35.374 87.9706 35.374C86.5995 35.374 85.6679 36.0244 85.6679 37.1406C85.6679 37.9229 86.2128 38.4854 87.329 38.7402L89.2889 39.2236C91.0907 39.6631 92.4618 40.5156 92.4618 42.5547C92.4618 44.9102 90.5546 46.2373 87.8387 46.2373C84.4989 46.2373 83.3827 44.2861 83.3387 42.6689ZM94.8395 36.71V34.4512H96.7555V36.71H98.566V38.2744H96.7555V43.2314C96.7555 44.2422 97.1334 44.5234 98.1793 44.5234C98.3463 44.5234 98.5045 44.5234 98.6188 44.5059V46C98.4605 46.0264 98.0914 46.0615 97.6959 46.0615C95.4371 46.0615 94.8131 45.2529 94.8131 43.3896V38.2744H93.5299V36.71H94.8395ZM103.835 36.5518C106.507 36.5518 107.957 38.4326 107.957 40.9639V41.7109C107.957 44.3301 106.516 46.1582 103.835 46.1582C101.155 46.1582 99.6956 44.3301 99.6956 41.7109V40.9639C99.6956 38.4414 101.163 36.5518 103.835 36.5518ZM103.835 38.1162C102.385 38.1162 101.664 39.3027 101.664 40.9902V41.7021C101.664 43.3633 102.376 44.585 103.835 44.585C105.294 44.585 105.997 43.3721 105.997 41.7021V40.9902C105.997 39.2939 105.285 38.1162 103.835 38.1162ZM109.606 46V36.71H111.557V37.9316H111.627C111.864 37.3516 112.559 36.5781 113.851 36.5781C114.106 36.5781 114.325 36.5957 114.51 36.6309V38.3535C114.343 38.3096 114 38.2832 113.675 38.2832C112.11 38.2832 111.583 39.25 111.583 40.498V46H109.606ZM119.243 46.1582C116.756 46.1582 115.174 44.5146 115.174 41.7637V40.8232C115.174 38.2305 116.72 36.5518 119.164 36.5518C121.642 36.5518 123.136 38.292 123.136 40.9111V41.7988H117.098V42.0186C117.098 43.583 117.942 44.6201 119.269 44.6201C120.262 44.6201 120.939 44.1279 121.177 43.3281H123.031C122.75 44.8311 121.537 46.1582 119.243 46.1582ZM117.098 40.4365H121.229V40.4189C121.229 39.1006 120.412 38.0635 119.173 38.0635C117.916 38.0635 117.098 39.1006 117.098 40.4189V40.4365Z" fill="black"/>
</svg>
