<svg width="134" height="28" viewBox="0 0 134 28" fill="none" xmlns="http://www.w3.org/2000/svg">
<path d="M10.3631 21.9784C8.92948 21.9784 7.70785 21.6276 6.69819 20.926C5.68859 20.2244 4.9768 19.2716 4.56289 18.0675C4.1489 16.8634 4.07317 15.5219 4.33572 14.0429C4.57801 12.5828 5.1333 11.2413 6.00159 10.0183C6.86982 8.79524 7.94507 7.82344 9.22728 7.10289C10.5095 6.38234 11.8574 6.02207 13.2708 6.02207C14.6641 6.02207 15.8756 6.37283 16.9055 7.07441C17.9353 7.776 18.6722 8.73834 19.1165 9.96137C19.5607 11.1844 19.6617 12.5449 19.4194 14.0429C19.1771 15.503 18.6016 16.8398 17.6929 18.0533C16.7843 19.2669 15.6838 20.2244 14.3915 20.926C13.0992 21.6276 11.7564 21.9784 10.3631 21.9784ZM4.33572 6.56248H6.81935L3.2756 27.7807H0.822235L4.33572 6.56248ZM10.0602 19.7598C11.09 19.7598 12.0946 19.5086 13.074 19.0061C14.0532 18.5036 14.8862 17.8116 15.5727 16.9299C16.2593 16.0481 16.6934 15.0668 16.8751 13.986C17.0569 12.8862 16.9913 11.905 16.6783 11.0422C16.3653 10.1794 15.8352 9.50151 15.0881 9.00855C14.341 8.51551 13.4424 8.26903 12.3924 8.26903C11.3626 8.26903 10.3581 8.51551 9.37871 9.00855C8.39945 9.50151 7.56648 10.1889 6.87995 11.0706C6.19342 11.9523 5.75924 12.9241 5.57755 13.986C5.39578 15.0858 5.4665 16.0765 5.78956 16.9583C6.11263 17.84 6.64773 18.5274 7.39485 19.0203C8.14196 19.5134 9.03045 19.7598 10.0602 19.7598ZM27.2902 21.9784C25.897 21.9784 24.6804 21.6276 23.6404 20.926C22.6006 20.2244 21.8585 19.2621 21.4143 18.0391C20.97 16.8161 20.869 15.4556 21.1113 13.9576C21.3537 12.4975 21.9292 11.1607 22.8378 9.94717C23.7465 8.73358 24.852 7.776 26.1544 7.07441C27.4568 6.37283 28.8047 6.02207 30.1979 6.02207C31.6316 6.02207 32.8482 6.37283 33.8477 7.07441C34.8472 7.776 35.554 8.72882 35.9679 9.93296C36.3818 11.137 36.4575 12.4785 36.195 13.9576C35.9528 15.4176 35.3975 16.7592 34.5292 17.9822C33.6609 19.2052 32.5907 20.177 31.3186 20.8976C30.0465 21.6181 28.7037 21.9784 27.2902 21.9784ZM28.1383 19.7314C29.1681 19.7314 30.1726 19.4802 31.152 18.9777C32.1313 18.4752 32.9643 17.7879 33.6508 16.9156C34.3374 16.0434 34.7715 15.0668 34.9532 13.986C35.1349 12.8862 35.0693 11.9002 34.7563 11.028C34.4434 10.1557 33.9133 9.4731 33.1662 8.98006C32.4191 8.4871 31.5307 8.24061 30.5008 8.24061C29.4508 8.24061 28.4361 8.49186 27.4568 8.99434C26.4775 9.49682 25.6446 10.1889 24.958 11.0706C24.2714 11.9523 23.8373 12.9241 23.6556 13.986C23.4739 15.0858 23.5395 16.0718 23.8525 16.9441C24.1655 17.8163 24.6955 18.4989 25.4426 18.9919C26.1897 19.485 27.0883 19.7314 28.1383 19.7314ZM36.1648 6.56248H38.6484L36.195 21.438H33.7417L36.1648 6.56248ZM44.5506 21.9784C42.6121 21.9784 41.2289 21.4143 40.401 20.2861C39.5731 19.1578 39.351 17.475 39.7346 15.2375L41.1885 6.56248H43.6419L42.0972 15.8632C41.8952 17.0199 42.0568 17.9585 42.5817 18.679C43.1068 19.3996 43.9751 19.7598 45.1866 19.7598C46.3375 19.7598 47.433 19.4992 48.4729 18.9777C49.5127 18.4563 50.3962 17.7072 51.1231 16.7307C51.85 15.7542 52.3448 14.6117 52.6073 13.3034L53.7582 13.7016C53.4352 15.3512 52.7991 16.8018 51.85 18.0533C50.901 19.3048 49.7804 20.2719 48.488 20.9545C47.1957 21.6371 45.8832 21.9784 44.5506 21.9784ZM53.7279 6.56248H56.1813L52.6073 27.7807H50.1539L53.7279 6.56248ZM61.6897 5.48165L59.0243 21.438H56.5406L59.8724 1.67034H62.356L72.1089 18.1955L74.8954 1.67034H77.3488L74.0171 21.438H71.2002L61.6897 5.48165ZM81.7971 7.21662C82.0193 5.88931 82.5544 4.69 83.4025 3.61862C84.2505 2.54731 85.3106 1.71297 86.5827 1.11573C87.8548 0.518416 89.2077 0.219727 90.6414 0.219727H91.9438L91.55 2.18228H91.0957C89.3188 2.18228 87.7993 2.61842 86.5373 3.49069C85.2753 4.3629 84.5231 5.548 84.2808 7.046L81.8577 21.438H79.4043L81.7971 7.21662ZM77.2235 7.89931H91.2775L90.9139 10.1178H76.8601L77.2235 7.89931ZM95.3361 0.219727H97.7895L94.2154 21.438H91.762L95.3361 0.219727ZM104.721 21.9784C103.106 21.9784 101.708 21.6371 100.526 20.9545C99.3452 20.2719 98.487 19.3238 97.9519 18.1102C97.4168 16.8966 97.3007 15.5219 97.6036 13.986C97.8661 12.5259 98.4971 11.1892 99.4966 9.97558C100.496 8.76206 101.708 7.79972 103.131 7.08869C104.555 6.37758 106.044 6.02207 107.599 6.02207C109.477 6.02207 110.996 6.40607 112.157 7.174C113.318 7.94193 114.096 8.93744 114.489 10.1605C114.883 11.3835 114.949 12.6587 114.686 13.986C114.545 14.5739 114.414 14.972 114.293 15.1806H100.027C99.8853 16.5648 100.294 17.6646 101.253 18.4799C102.212 19.2953 103.55 19.703 105.267 19.703C106.397 19.703 107.462 19.4802 108.462 19.0346C109.462 18.589 110.315 18.0249 111.021 17.3423L112.899 18.5368C111.97 19.5797 110.779 20.4141 109.325 21.0398C107.871 21.6655 106.337 21.9784 104.721 21.9784ZM112.293 13.019C112.435 12.2415 112.339 11.483 112.006 10.7435C111.673 10.0041 111.117 9.402 110.34 8.93744C109.563 8.47289 108.608 8.24061 107.478 8.24061C105.923 8.24061 104.509 8.672 103.237 9.53475C101.965 10.3975 101.036 11.5589 100.451 13.019H112.293ZM121.224 13.8154L115.197 6.56248H118.62L123.254 12.3648L129.887 6.56248H133.31L124.708 13.9007L130.977 21.438H127.555L122.678 15.3228L115.53 21.438H112.077L121.224 13.8154Z" fill="white"/>
</svg>
